G04*
G04 #@! TF.GenerationSoftware,Altium Limited,Altium Designer,25.3.3 (18)*
G04*
G04 Layer_Physical_Order=2*
G04 Layer_Color=16711680*
%FSLAX25Y25*%
%MOIN*%
G70*
G04*
G04 #@! TF.SameCoordinates,534849FD-C709-4DE4-B12B-026E8ABDF027*
G04*
G04*
G04 #@! TF.FilePolarity,Positive*
G04*
G01*
G75*
%ADD59C,0.01968*%
%ADD61C,0.02756*%
%ADD62R,0.07972X0.07972*%
%ADD63C,0.07972*%
%ADD64C,0.06791*%
%ADD65R,0.06791X0.06791*%
%ADD66C,0.06693*%
%ADD67R,0.06693X0.06693*%
%ADD68C,0.04547*%
%ADD69R,0.04547X0.04547*%
%ADD70C,0.07087*%
%ADD71R,0.07087X0.07087*%
%ADD72C,0.08268*%
%ADD73R,0.07795X0.07795*%
%ADD74C,0.07795*%
%ADD75R,0.06791X0.06791*%
%ADD76R,0.06693X0.06693*%
%ADD77R,0.05906X0.05906*%
%ADD78C,0.05906*%
%ADD79C,0.16772*%
%ADD80R,0.05965X0.05965*%
%ADD81C,0.05965*%
%ADD82C,0.09390*%
%ADD83C,0.13386*%
%ADD84C,0.06024*%
%ADD85C,0.02756*%
D59*
X457480Y188976D02*
Y277953D01*
Y366929D01*
X583337Y525472D02*
X588308D01*
X591339Y493307D02*
Y522441D01*
X588308Y525472D02*
X591339Y522441D01*
X583337Y525472D02*
X583337Y525472D01*
X562992Y493307D02*
X591339D01*
X476772D02*
X562992D01*
Y500630D01*
X614597Y505472D02*
X620472Y511348D01*
Y548032D01*
X601181Y567323D02*
X620472Y548032D01*
X595276Y567323D02*
X601181D01*
X602312Y493307D02*
X624409Y471209D01*
X591339Y493307D02*
X602312D01*
X231496Y492913D02*
X236614Y487795D01*
X183465Y492913D02*
X231496D01*
X624409Y455905D02*
Y471209D01*
X457480Y474016D02*
X476772Y493307D01*
X624409Y277953D02*
Y366929D01*
Y188976D02*
Y277953D01*
Y366929D02*
Y455905D01*
X457480Y366929D02*
Y455905D01*
Y474016D01*
D61*
X474016Y555905D02*
X562992D01*
X436614Y453937D02*
X449213Y466535D01*
X451181D01*
X616713Y377461D02*
X618209D01*
X603543Y390631D02*
X616713Y377461D01*
X616615Y288583D02*
X618110D01*
X603543Y301654D02*
X616615Y288583D01*
X616713Y199508D02*
X618209D01*
X603543Y212678D02*
X616713Y199508D01*
X449213Y377559D02*
Y378032D01*
X436614Y390631D02*
X449213Y378032D01*
X449784Y288484D02*
X451279D01*
X436614Y301654D02*
X449784Y288484D01*
X449784Y199508D02*
X451279D01*
X436614Y212678D02*
X449784Y199508D01*
X436614Y212678D02*
Y275984D01*
X449213Y288583D02*
X451181D01*
X436614Y275984D02*
X449213Y288583D01*
X436614Y301654D02*
Y364961D01*
X449213Y377559D02*
X451181D01*
X436614Y364961D02*
X449213Y377559D01*
X436614Y390631D02*
Y453937D01*
X603543Y212678D02*
Y275984D01*
X616142Y288583D02*
X618110D01*
X603543Y275984D02*
X616142Y288583D01*
X603543Y301654D02*
Y364961D01*
X616142Y377559D02*
X618110D01*
X603543Y364961D02*
X616142Y377559D01*
X603543Y453937D02*
X616142Y466535D01*
X618110D01*
X603543Y390631D02*
Y453937D01*
X115354Y498819D02*
X128347Y511811D01*
X158268D01*
X162992Y516535D01*
X239764Y498819D02*
X255118Y514173D01*
X200000Y498819D02*
X239764D01*
X562992Y555905D02*
X577165D01*
X562992D02*
Y564567D01*
X607598Y525472D02*
X614597D01*
X577165Y555905D02*
X607598Y525472D01*
X152205Y482913D02*
X183465D01*
X138701Y469409D02*
X152205Y482913D01*
X577165Y144488D02*
Y411417D01*
X410236Y144488D02*
Y411417D01*
D62*
X495669Y568898D02*
D03*
D63*
X509055D02*
D03*
X522441D02*
D03*
X502362Y576772D02*
D03*
X515748D02*
D03*
D64*
X288583Y462205D02*
D03*
X275984D02*
D03*
X200000Y508819D02*
D03*
X115354D02*
D03*
X633538Y532680D02*
D03*
Y522680D02*
D03*
X562992Y574567D02*
D03*
Y542598D02*
D03*
Y510630D02*
D03*
X183465Y502913D02*
D03*
Y492913D02*
D03*
Y482913D02*
D03*
X230315Y462598D02*
D03*
X240315D02*
D03*
X250315D02*
D03*
X210315D02*
D03*
X220315D02*
D03*
X352913Y548425D02*
D03*
X310394D02*
D03*
X593307Y312598D02*
D03*
X635113Y247483D02*
D03*
Y257483D02*
D03*
Y336459D02*
D03*
Y346459D02*
D03*
Y425435D02*
D03*
Y435435D02*
D03*
Y158506D02*
D03*
Y168506D02*
D03*
X593307Y224016D02*
D03*
Y401968D02*
D03*
X591732Y135039D02*
D03*
X426378Y312992D02*
D03*
Y224016D02*
D03*
X426378Y135039D02*
D03*
X468184Y336459D02*
D03*
Y346459D02*
D03*
Y247483D02*
D03*
Y257483D02*
D03*
X468184Y158506D02*
D03*
Y168506D02*
D03*
X468184Y425435D02*
D03*
Y435435D02*
D03*
X426378Y401968D02*
D03*
X314126Y207008D02*
D03*
Y217008D02*
D03*
Y227008D02*
D03*
Y237008D02*
D03*
Y267008D02*
D03*
Y277008D02*
D03*
Y287008D02*
D03*
Y247008D02*
D03*
Y257008D02*
D03*
Y121008D02*
D03*
Y131008D02*
D03*
Y161008D02*
D03*
Y171008D02*
D03*
Y181008D02*
D03*
Y141008D02*
D03*
Y151008D02*
D03*
X124126Y131008D02*
D03*
Y121008D02*
D03*
Y161008D02*
D03*
Y151008D02*
D03*
Y141008D02*
D03*
Y191008D02*
D03*
Y201008D02*
D03*
Y231008D02*
D03*
Y241008D02*
D03*
Y251008D02*
D03*
Y211008D02*
D03*
Y221008D02*
D03*
X351339Y474016D02*
D03*
X311968D02*
D03*
D65*
X288583Y452205D02*
D03*
X275984D02*
D03*
X200000Y498819D02*
D03*
X115354D02*
D03*
X633538Y542680D02*
D03*
X562992Y564567D02*
D03*
Y532598D02*
D03*
Y500630D02*
D03*
X183465Y472913D02*
D03*
X635113Y267483D02*
D03*
Y356459D02*
D03*
Y445435D02*
D03*
Y178506D02*
D03*
X468184Y356459D02*
D03*
Y267483D02*
D03*
X468184Y178506D02*
D03*
X468184Y445435D02*
D03*
X314126Y297008D02*
D03*
Y191008D02*
D03*
X124126Y171008D02*
D03*
Y261008D02*
D03*
D66*
X614597Y535472D02*
D03*
Y525472D02*
D03*
Y515472D02*
D03*
Y505472D02*
D03*
X583337D02*
D03*
Y515472D02*
D03*
Y525472D02*
D03*
X158701Y469409D02*
D03*
X148701D02*
D03*
X138701D02*
D03*
X128701D02*
D03*
Y500669D02*
D03*
X138701D02*
D03*
X148701D02*
D03*
X584912Y441240D02*
D03*
Y431240D02*
D03*
Y421240D02*
D03*
X616172D02*
D03*
Y431240D02*
D03*
Y441240D02*
D03*
Y451240D02*
D03*
X584912Y352264D02*
D03*
Y342264D02*
D03*
Y332264D02*
D03*
X616172D02*
D03*
Y342264D02*
D03*
Y352264D02*
D03*
Y362264D02*
D03*
X584912Y174311D02*
D03*
Y164311D02*
D03*
Y154311D02*
D03*
X616172D02*
D03*
Y164311D02*
D03*
Y174311D02*
D03*
Y184311D02*
D03*
X584912Y263287D02*
D03*
Y253287D02*
D03*
Y243287D02*
D03*
X616172D02*
D03*
Y253287D02*
D03*
Y263287D02*
D03*
Y273287D02*
D03*
X417982Y441240D02*
D03*
Y431240D02*
D03*
Y421240D02*
D03*
X449242D02*
D03*
Y431240D02*
D03*
Y441240D02*
D03*
Y451240D02*
D03*
X417982Y352264D02*
D03*
Y342264D02*
D03*
Y332264D02*
D03*
X449242D02*
D03*
Y342264D02*
D03*
Y352264D02*
D03*
Y362264D02*
D03*
X417982Y263287D02*
D03*
Y253287D02*
D03*
Y243287D02*
D03*
X449242D02*
D03*
Y253287D02*
D03*
Y263287D02*
D03*
Y273287D02*
D03*
X417982Y174311D02*
D03*
Y164311D02*
D03*
Y154311D02*
D03*
X449242D02*
D03*
Y164311D02*
D03*
Y174311D02*
D03*
Y184311D02*
D03*
D67*
X583337Y535472D02*
D03*
X584912Y451240D02*
D03*
Y362264D02*
D03*
Y184311D02*
D03*
Y273287D02*
D03*
X417982Y451240D02*
D03*
Y362264D02*
D03*
Y273287D02*
D03*
X417982Y184311D02*
D03*
D68*
X633465Y567323D02*
D03*
X623465D02*
D03*
X633465Y577323D02*
D03*
X595276Y567323D02*
D03*
X585276D02*
D03*
X595276Y577323D02*
D03*
X660236Y290945D02*
D03*
X650236D02*
D03*
X660236Y300945D02*
D03*
Y379921D02*
D03*
X650236D02*
D03*
X660236Y389921D02*
D03*
Y468898D02*
D03*
X650236D02*
D03*
X660236Y478898D02*
D03*
Y201969D02*
D03*
X650236D02*
D03*
X660236Y211968D02*
D03*
X493307Y201969D02*
D03*
X483307D02*
D03*
X493307Y211968D02*
D03*
X493307Y290945D02*
D03*
X483307D02*
D03*
X493307Y300945D02*
D03*
Y379921D02*
D03*
X483307D02*
D03*
X493307Y389921D02*
D03*
Y468898D02*
D03*
X483307D02*
D03*
X493307Y478898D02*
D03*
D69*
X633465Y557323D02*
D03*
X595276D02*
D03*
X660236Y280945D02*
D03*
Y369921D02*
D03*
Y458898D02*
D03*
Y191969D02*
D03*
X493307D02*
D03*
X493307Y280945D02*
D03*
Y369921D02*
D03*
Y458898D02*
D03*
D70*
X428346Y578740D02*
D03*
X357874D02*
D03*
X315354D02*
D03*
D71*
X408661D02*
D03*
X338189D02*
D03*
X295669D02*
D03*
D72*
X225591Y585827D02*
D03*
X245276D02*
D03*
X215748Y536614D02*
D03*
X255118D02*
D03*
X205906Y546457D02*
D03*
X235433D02*
D03*
X264961D02*
D03*
X133465Y585827D02*
D03*
X153150D02*
D03*
X123622Y536614D02*
D03*
X162992D02*
D03*
X113779Y546457D02*
D03*
X143307D02*
D03*
X172835D02*
D03*
D73*
X337598Y451575D02*
D03*
D74*
X327559D02*
D03*
X317520D02*
D03*
D75*
X260315Y462598D02*
D03*
X342913Y548425D02*
D03*
X300394D02*
D03*
X583307Y312598D02*
D03*
Y224016D02*
D03*
Y401968D02*
D03*
X581732Y135039D02*
D03*
X416378Y312992D02*
D03*
Y224016D02*
D03*
X416378Y135039D02*
D03*
X416378Y401968D02*
D03*
X341339Y474016D02*
D03*
X301969D02*
D03*
D76*
X158701Y500669D02*
D03*
D77*
X694181Y414701D02*
D03*
Y325725D02*
D03*
Y236748D02*
D03*
Y147772D02*
D03*
X527252Y414701D02*
D03*
Y325725D02*
D03*
Y236748D02*
D03*
X527252Y147772D02*
D03*
X694181Y512598D02*
D03*
D78*
Y424543D02*
D03*
Y434386D02*
D03*
Y335567D02*
D03*
Y345409D02*
D03*
Y246591D02*
D03*
Y256433D02*
D03*
Y157614D02*
D03*
Y167457D02*
D03*
X527252Y424543D02*
D03*
Y434386D02*
D03*
Y335567D02*
D03*
Y345410D02*
D03*
Y246591D02*
D03*
Y256433D02*
D03*
X527252Y157614D02*
D03*
Y167457D02*
D03*
X694181Y522441D02*
D03*
Y532283D02*
D03*
D79*
X666622Y407221D02*
D03*
Y441866D02*
D03*
Y318244D02*
D03*
Y352890D02*
D03*
Y229268D02*
D03*
Y263913D02*
D03*
Y140291D02*
D03*
Y174937D02*
D03*
X499693Y407221D02*
D03*
Y441866D02*
D03*
Y318244D02*
D03*
Y352890D02*
D03*
Y229268D02*
D03*
Y263913D02*
D03*
X499693Y140291D02*
D03*
Y174937D02*
D03*
X666622Y505118D02*
D03*
Y539764D02*
D03*
D80*
X394094Y437008D02*
D03*
X561024Y348031D02*
D03*
Y259055D02*
D03*
Y170079D02*
D03*
Y437008D02*
D03*
X394094Y348031D02*
D03*
Y259055D02*
D03*
X394094Y170079D02*
D03*
D81*
X394094Y425197D02*
D03*
Y413386D02*
D03*
X561024Y336221D02*
D03*
Y324410D02*
D03*
Y247244D02*
D03*
Y235433D02*
D03*
Y158268D02*
D03*
Y146457D02*
D03*
Y425197D02*
D03*
Y413386D02*
D03*
X394094Y336221D02*
D03*
Y324410D02*
D03*
Y247244D02*
D03*
Y235433D02*
D03*
X394094Y158268D02*
D03*
Y146457D02*
D03*
D82*
X394094Y448032D02*
D03*
Y402362D02*
D03*
X561024Y359055D02*
D03*
Y313386D02*
D03*
Y270079D02*
D03*
Y224410D02*
D03*
Y181102D02*
D03*
Y135433D02*
D03*
Y448032D02*
D03*
Y402362D02*
D03*
X394094Y359055D02*
D03*
Y313386D02*
D03*
Y270079D02*
D03*
Y224410D02*
D03*
X394094Y181102D02*
D03*
Y135433D02*
D03*
D83*
X377559Y585039D02*
D03*
X377953Y111024D02*
D03*
X91339Y585039D02*
D03*
X691339D02*
D03*
X296126Y111024D02*
D03*
X142126D02*
D03*
X691339D02*
D03*
D84*
X344126Y121008D02*
D03*
X334126D02*
D03*
X344126Y131008D02*
D03*
X334126D02*
D03*
X344126Y141008D02*
D03*
X334126D02*
D03*
X344126Y151008D02*
D03*
X334126D02*
D03*
X344126Y161008D02*
D03*
X334126D02*
D03*
X344126Y171008D02*
D03*
X334126D02*
D03*
X344126Y181008D02*
D03*
X334126D02*
D03*
X344126Y191008D02*
D03*
X334126D02*
D03*
X344126Y201008D02*
D03*
X334126D02*
D03*
X344126Y211008D02*
D03*
X334126D02*
D03*
X344126Y221008D02*
D03*
X334126D02*
D03*
X344126Y231008D02*
D03*
X334126D02*
D03*
X344126Y241008D02*
D03*
X334126D02*
D03*
X344126Y251008D02*
D03*
X334126D02*
D03*
X344126Y261008D02*
D03*
X334126D02*
D03*
X344126Y271008D02*
D03*
X334126D02*
D03*
X344126Y281008D02*
D03*
X334126D02*
D03*
X344126Y291008D02*
D03*
X334126D02*
D03*
X344126Y301008D02*
D03*
X334126D02*
D03*
X104126Y121008D02*
D03*
X94126D02*
D03*
X104126Y131008D02*
D03*
X94126D02*
D03*
X104126Y141008D02*
D03*
X94126D02*
D03*
X104126Y151008D02*
D03*
X94126D02*
D03*
X104126Y161008D02*
D03*
X94126D02*
D03*
X104126Y171008D02*
D03*
X94126D02*
D03*
X104126Y181008D02*
D03*
X94126D02*
D03*
X104126Y191008D02*
D03*
X94126D02*
D03*
X104126Y201008D02*
D03*
X94126D02*
D03*
X104126Y211008D02*
D03*
X94126D02*
D03*
X104126Y221008D02*
D03*
X94126D02*
D03*
X104126Y231008D02*
D03*
X94126D02*
D03*
X104126Y241008D02*
D03*
X94126D02*
D03*
X104126Y251008D02*
D03*
X94126D02*
D03*
X104126Y261008D02*
D03*
X94126D02*
D03*
X104126Y271008D02*
D03*
X94126D02*
D03*
X104126Y281008D02*
D03*
X94126D02*
D03*
X104126Y291008D02*
D03*
X94126D02*
D03*
X104126Y301008D02*
D03*
X94126D02*
D03*
D85*
X474016Y555905D02*
D03*
X410236Y411417D02*
D03*
X451279Y466437D02*
D03*
X362205Y297244D02*
D03*
X451279Y377461D02*
D03*
Y288484D02*
D03*
X451279Y199508D02*
D03*
X618209Y377461D02*
D03*
Y199508D02*
D03*
X618110Y288583D02*
D03*
Y466535D02*
D03*
X548032Y393307D02*
D03*
X542520D02*
D03*
X564567D02*
D03*
X559055D02*
D03*
X553543D02*
D03*
X581102D02*
D03*
X570079D02*
D03*
X597638D02*
D03*
X592126D02*
D03*
X586614D02*
D03*
X614173D02*
D03*
X630709D02*
D03*
X619685D02*
D03*
X647244Y396457D02*
D03*
X641732D02*
D03*
X636221Y393307D02*
D03*
X663779Y396457D02*
D03*
X658268D02*
D03*
X652756D02*
D03*
X680315D02*
D03*
X674803D02*
D03*
X669291D02*
D03*
X696850D02*
D03*
X691339D02*
D03*
X685827D02*
D03*
X608661Y393307D02*
D03*
X548032Y304331D02*
D03*
X542520D02*
D03*
X564567D02*
D03*
X559055D02*
D03*
X553543D02*
D03*
X581102D02*
D03*
X570079D02*
D03*
X597638D02*
D03*
X592126D02*
D03*
X586614D02*
D03*
X614173D02*
D03*
X630709D02*
D03*
X619685D02*
D03*
X647244Y307480D02*
D03*
X641732D02*
D03*
X636221Y304331D02*
D03*
X663779Y307480D02*
D03*
X658268D02*
D03*
X652756D02*
D03*
X680315D02*
D03*
X674803D02*
D03*
X669291D02*
D03*
X696850D02*
D03*
X691339D02*
D03*
X685827D02*
D03*
X608661Y304331D02*
D03*
Y215354D02*
D03*
X535433Y214567D02*
D03*
X685827Y218504D02*
D03*
X691339D02*
D03*
X696850D02*
D03*
X669291D02*
D03*
X674803D02*
D03*
X680315D02*
D03*
X652756D02*
D03*
X658268D02*
D03*
X663779D02*
D03*
X636221Y215354D02*
D03*
X641732Y218504D02*
D03*
X647244D02*
D03*
X619685Y215354D02*
D03*
X630709D02*
D03*
X614173D02*
D03*
X586614D02*
D03*
X592126D02*
D03*
X597638D02*
D03*
X570079D02*
D03*
X581102D02*
D03*
X553543D02*
D03*
X559055D02*
D03*
X564567D02*
D03*
X542520D02*
D03*
X548032D02*
D03*
X531496D02*
D03*
X518898Y218504D02*
D03*
X524409D02*
D03*
X529921D02*
D03*
X502362D02*
D03*
X507874D02*
D03*
X513386D02*
D03*
X485827D02*
D03*
X491339D02*
D03*
X496850D02*
D03*
X469291Y215354D02*
D03*
X474803Y218504D02*
D03*
X480315D02*
D03*
X452756Y215354D02*
D03*
X463779D02*
D03*
X441732D02*
D03*
X447244D02*
D03*
X419685D02*
D03*
X425197D02*
D03*
X430709D02*
D03*
X403150D02*
D03*
X414173D02*
D03*
X386614D02*
D03*
X392126D02*
D03*
X397638D02*
D03*
X370079D02*
D03*
X375591D02*
D03*
X381102D02*
D03*
X364567D02*
D03*
X518898Y307480D02*
D03*
X524409D02*
D03*
X529921D02*
D03*
X502362D02*
D03*
X507874D02*
D03*
X513386D02*
D03*
X485827D02*
D03*
X491339D02*
D03*
X496850D02*
D03*
X469291Y304331D02*
D03*
X474803Y307480D02*
D03*
X480315D02*
D03*
X452756Y304331D02*
D03*
X463779D02*
D03*
X441732D02*
D03*
X447244D02*
D03*
X419685D02*
D03*
X425197D02*
D03*
X430709D02*
D03*
X403150D02*
D03*
X414173D02*
D03*
X386614D02*
D03*
X392126D02*
D03*
X397638D02*
D03*
X370079D02*
D03*
X375591D02*
D03*
X381102D02*
D03*
X364567D02*
D03*
X695276Y487008D02*
D03*
X689764D02*
D03*
X684252D02*
D03*
X678740D02*
D03*
X673228D02*
D03*
X667717D02*
D03*
X662205D02*
D03*
X656693D02*
D03*
X651181D02*
D03*
X645669D02*
D03*
X640158D02*
D03*
X634646D02*
D03*
X629134D02*
D03*
X623622D02*
D03*
X618110D02*
D03*
X601575D02*
D03*
X596063D02*
D03*
X590551D02*
D03*
X585039D02*
D03*
X579528D02*
D03*
X574016D02*
D03*
X568504D02*
D03*
X562992D02*
D03*
X557480D02*
D03*
X551968D02*
D03*
X546457D02*
D03*
X540945D02*
D03*
X162992Y516535D02*
D03*
X255118Y514173D02*
D03*
X236614Y487795D02*
D03*
X700787Y490157D02*
D03*
Y495669D02*
D03*
Y501181D02*
D03*
Y506693D02*
D03*
Y512205D02*
D03*
Y517717D02*
D03*
Y523228D02*
D03*
Y545275D02*
D03*
Y550787D02*
D03*
Y556299D02*
D03*
Y561811D02*
D03*
Y567323D02*
D03*
Y572835D02*
D03*
Y578346D02*
D03*
Y589370D02*
D03*
Y583858D02*
D03*
Y264173D02*
D03*
Y269685D02*
D03*
Y275197D02*
D03*
Y131890D02*
D03*
Y137402D02*
D03*
Y142913D02*
D03*
Y148425D02*
D03*
Y153937D02*
D03*
Y181496D02*
D03*
Y187008D02*
D03*
Y192520D02*
D03*
Y198031D02*
D03*
Y203543D02*
D03*
Y209055D02*
D03*
Y214567D02*
D03*
Y220079D02*
D03*
Y313779D02*
D03*
Y308268D02*
D03*
Y302756D02*
D03*
Y297244D02*
D03*
Y291732D02*
D03*
Y286220D02*
D03*
Y280709D02*
D03*
Y247638D02*
D03*
Y242126D02*
D03*
Y236614D02*
D03*
Y231102D02*
D03*
Y225590D02*
D03*
Y319291D02*
D03*
Y324803D02*
D03*
Y330315D02*
D03*
Y335827D02*
D03*
Y357874D02*
D03*
Y363386D02*
D03*
Y368898D02*
D03*
Y374409D02*
D03*
Y379921D02*
D03*
Y385433D02*
D03*
Y390945D02*
D03*
Y396457D02*
D03*
Y401968D02*
D03*
Y407480D02*
D03*
Y412992D02*
D03*
Y418504D02*
D03*
Y424016D02*
D03*
Y446063D02*
D03*
Y451575D02*
D03*
Y457087D02*
D03*
Y462598D02*
D03*
Y468110D02*
D03*
Y473622D02*
D03*
Y479134D02*
D03*
Y484646D02*
D03*
Y126378D02*
D03*
X695276D02*
D03*
X689764D02*
D03*
X684252D02*
D03*
X678740D02*
D03*
X673228D02*
D03*
X667717D02*
D03*
X662205D02*
D03*
X656693D02*
D03*
X651181D02*
D03*
X645669D02*
D03*
X640158D02*
D03*
X634646D02*
D03*
X629134D02*
D03*
X623622D02*
D03*
X618110D02*
D03*
X612598D02*
D03*
X607087D02*
D03*
X364567Y393307D02*
D03*
X381102D02*
D03*
X375591D02*
D03*
X370079D02*
D03*
X397638D02*
D03*
X392126D02*
D03*
X386614D02*
D03*
X414173D02*
D03*
X403150D02*
D03*
X430709D02*
D03*
X425197D02*
D03*
X419685D02*
D03*
X447244D02*
D03*
X441732D02*
D03*
X463779D02*
D03*
X452756D02*
D03*
X480315Y396457D02*
D03*
X474803D02*
D03*
X469291Y393307D02*
D03*
X496850Y396457D02*
D03*
X491339D02*
D03*
X485827D02*
D03*
X513386D02*
D03*
X507874D02*
D03*
X502362D02*
D03*
X529921D02*
D03*
X524409D02*
D03*
X518898D02*
D03*
X364567Y459449D02*
D03*
X362205Y457087D02*
D03*
X370079Y464961D02*
D03*
X375591Y470472D02*
D03*
X381102Y475984D02*
D03*
X386614Y481496D02*
D03*
X397638Y487008D02*
D03*
X392126D02*
D03*
X463779D02*
D03*
X458268D02*
D03*
X452756D02*
D03*
X447244D02*
D03*
X441732D02*
D03*
X436221D02*
D03*
X430709D02*
D03*
X425197D02*
D03*
X419685D02*
D03*
X414173D02*
D03*
X408661D02*
D03*
X403150D02*
D03*
X529921D02*
D03*
X524409D02*
D03*
X518898D02*
D03*
X513386D02*
D03*
X507874D02*
D03*
X502362D02*
D03*
X496850D02*
D03*
X491339D02*
D03*
X485827D02*
D03*
X480315D02*
D03*
X474803D02*
D03*
X362205Y396457D02*
D03*
Y401968D02*
D03*
Y407480D02*
D03*
Y412992D02*
D03*
Y418504D02*
D03*
Y424016D02*
D03*
Y429528D02*
D03*
Y435039D02*
D03*
Y440551D02*
D03*
Y446063D02*
D03*
Y451575D02*
D03*
Y330315D02*
D03*
Y335827D02*
D03*
Y341338D02*
D03*
Y346850D02*
D03*
Y352362D02*
D03*
Y357874D02*
D03*
Y363386D02*
D03*
Y368898D02*
D03*
Y374409D02*
D03*
Y379921D02*
D03*
Y385433D02*
D03*
Y390945D02*
D03*
Y264173D02*
D03*
Y269685D02*
D03*
Y275197D02*
D03*
Y280709D02*
D03*
Y286220D02*
D03*
Y291732D02*
D03*
Y302756D02*
D03*
Y308268D02*
D03*
Y313779D02*
D03*
Y319291D02*
D03*
Y324803D02*
D03*
Y198031D02*
D03*
Y203543D02*
D03*
Y209055D02*
D03*
Y214567D02*
D03*
Y220079D02*
D03*
Y225590D02*
D03*
Y231102D02*
D03*
Y236614D02*
D03*
Y242126D02*
D03*
Y247638D02*
D03*
Y253150D02*
D03*
Y258661D02*
D03*
Y131890D02*
D03*
Y137402D02*
D03*
Y142913D02*
D03*
Y148425D02*
D03*
Y153937D02*
D03*
Y159449D02*
D03*
Y164961D02*
D03*
Y170472D02*
D03*
Y175984D02*
D03*
Y181496D02*
D03*
Y187008D02*
D03*
Y192520D02*
D03*
X397638Y126378D02*
D03*
X392126D02*
D03*
X386614D02*
D03*
X381102D02*
D03*
X375591D02*
D03*
X370079D02*
D03*
X364567D02*
D03*
X463779D02*
D03*
X458268D02*
D03*
X452756D02*
D03*
X447244D02*
D03*
X441732D02*
D03*
X436221D02*
D03*
X430709D02*
D03*
X425197D02*
D03*
X419685D02*
D03*
X414173D02*
D03*
X408661D02*
D03*
X403150D02*
D03*
X540945D02*
D03*
X546457D02*
D03*
X551968D02*
D03*
X557480D02*
D03*
X562992D02*
D03*
X568504D02*
D03*
X574016D02*
D03*
X579528D02*
D03*
X585039D02*
D03*
X590551D02*
D03*
X596063D02*
D03*
X601575D02*
D03*
X529921D02*
D03*
X524409D02*
D03*
X518898D02*
D03*
X513386D02*
D03*
X507874D02*
D03*
X502362D02*
D03*
X496850D02*
D03*
X491339D02*
D03*
X485827D02*
D03*
X480315D02*
D03*
X474803D02*
D03*
X469291D02*
D03*
X410236Y322441D02*
D03*
Y233465D02*
D03*
X410236Y144488D02*
D03*
X577165D02*
D03*
Y233465D02*
D03*
Y322441D02*
D03*
X535433Y484646D02*
D03*
Y479134D02*
D03*
Y473622D02*
D03*
Y468110D02*
D03*
Y462598D02*
D03*
Y457087D02*
D03*
Y451575D02*
D03*
Y446063D02*
D03*
Y440551D02*
D03*
Y435039D02*
D03*
Y429528D02*
D03*
Y424016D02*
D03*
Y418504D02*
D03*
Y412992D02*
D03*
Y407480D02*
D03*
Y401968D02*
D03*
Y396457D02*
D03*
Y390945D02*
D03*
Y385433D02*
D03*
Y379921D02*
D03*
Y374409D02*
D03*
Y368898D02*
D03*
Y363386D02*
D03*
Y357874D02*
D03*
Y352362D02*
D03*
Y346850D02*
D03*
Y341338D02*
D03*
Y335827D02*
D03*
Y330315D02*
D03*
Y324803D02*
D03*
Y319291D02*
D03*
Y225590D02*
D03*
Y231102D02*
D03*
Y236614D02*
D03*
Y242126D02*
D03*
Y247638D02*
D03*
Y253150D02*
D03*
Y258661D02*
D03*
Y264173D02*
D03*
Y269685D02*
D03*
Y275197D02*
D03*
Y280709D02*
D03*
Y286220D02*
D03*
Y291732D02*
D03*
Y297244D02*
D03*
Y302756D02*
D03*
Y308268D02*
D03*
Y313779D02*
D03*
Y220079D02*
D03*
Y209055D02*
D03*
Y203543D02*
D03*
Y198031D02*
D03*
Y192520D02*
D03*
Y187008D02*
D03*
Y181496D02*
D03*
Y175984D02*
D03*
Y170472D02*
D03*
Y164961D02*
D03*
Y159449D02*
D03*
Y153937D02*
D03*
Y148425D02*
D03*
Y142913D02*
D03*
Y137402D02*
D03*
Y131890D02*
D03*
Y126378D02*
D03*
X577165Y411417D02*
D03*
X624409Y455905D02*
D03*
Y188976D02*
D03*
Y277953D02*
D03*
Y366929D02*
D03*
X457480Y455905D02*
D03*
Y366929D02*
D03*
Y277953D02*
D03*
Y188976D02*
D03*
M02*
