G04*
G04 #@! TF.GenerationSoftware,Altium Limited,Altium Designer,25.3.3 (18)*
G04*
G04 Layer_Physical_Order=1*
G04 Layer_Color=255*
%FSLAX25Y25*%
%MOIN*%
G70*
G04*
G04 #@! TF.SameCoordinates,534849FD-C709-4DE4-B12B-026E8ABDF027*
G04*
G04*
G04 #@! TF.FilePolarity,Positive*
G04*
G01*
G75*
%ADD11C,0.00787*%
%ADD12C,0.01575*%
%ADD14R,0.13976X0.07284*%
%ADD15R,0.07087X0.11024*%
%ADD16R,0.05709X0.04724*%
%ADD17R,0.05512X0.03937*%
%ADD18R,0.04528X0.02953*%
%ADD19R,0.03937X0.05512*%
%ADD20R,0.03740X0.03543*%
%ADD21R,0.04724X0.05709*%
%ADD22R,0.01575X0.04724*%
%ADD23R,0.05315X0.02559*%
%ADD24R,0.03701X0.02874*%
%ADD59C,0.01968*%
%ADD60C,0.04724*%
%ADD61C,0.02756*%
%ADD62R,0.07972X0.07972*%
%ADD63C,0.07972*%
%ADD64C,0.06791*%
%ADD65R,0.06791X0.06791*%
%ADD66C,0.06693*%
%ADD67R,0.06693X0.06693*%
%ADD68C,0.04547*%
%ADD69R,0.04547X0.04547*%
%ADD70C,0.07087*%
%ADD71R,0.07087X0.07087*%
%ADD72C,0.08268*%
%ADD73R,0.07795X0.07795*%
%ADD74C,0.07795*%
%ADD75R,0.06791X0.06791*%
%ADD76R,0.06693X0.06693*%
%ADD77R,0.05906X0.05906*%
%ADD78C,0.05906*%
%ADD79C,0.16772*%
%ADD80R,0.05965X0.05965*%
%ADD81C,0.05965*%
%ADD82C,0.09390*%
%ADD83C,0.13386*%
%ADD84C,0.06024*%
%ADD85C,0.02756*%
D11*
X459055Y425787D02*
X460433D01*
X457480Y424213D02*
X459055Y425787D01*
X467035Y432389D02*
Y434287D01*
X460433Y425787D02*
X467035Y432389D01*
X457480Y410039D02*
X457480Y410039D01*
X457480Y416732D02*
X457480Y416732D01*
Y410039D02*
Y416732D01*
X467035Y434287D02*
X467531Y434783D01*
X468184Y435435D01*
X467531Y345807D02*
X468184Y346459D01*
X467035Y345310D02*
X467531Y345807D01*
X457480Y321063D02*
Y327756D01*
X457480Y327756D02*
X457480Y327756D01*
X457480Y321063D02*
X457480Y321063D01*
X460433Y336811D02*
X467035Y343413D01*
Y345310D01*
X457480Y335236D02*
X459055Y336811D01*
X460433D01*
X467531Y256830D02*
X468184Y257483D01*
X467035Y256334D02*
X467531Y256830D01*
X457480Y232087D02*
Y238779D01*
X457480Y238779D02*
X457480Y238779D01*
X457480Y232087D02*
X457480Y232087D01*
X460433Y247835D02*
X467035Y254436D01*
Y256334D01*
X457480Y246260D02*
X459055Y247835D01*
X460433D01*
X467531Y167854D02*
X468184Y168506D01*
X467035Y167358D02*
X467531Y167854D01*
X457480Y143110D02*
Y149803D01*
X457480Y149803D02*
X457480Y149803D01*
X457480Y143110D02*
X457480Y143110D01*
X460433Y158858D02*
X467035Y165460D01*
Y167358D01*
X457480Y157283D02*
X459055Y158858D01*
X460433D01*
X634460Y167854D02*
X635113Y168506D01*
X633964Y167358D02*
X634460Y167854D01*
X624409Y143110D02*
Y149803D01*
X624409Y149803D02*
X624409Y149803D01*
X624409Y143110D02*
X624409Y143110D01*
X627362Y158858D02*
X633964Y165460D01*
Y167358D01*
X624409Y157283D02*
X625984Y158858D01*
X627362D01*
X634460Y256830D02*
X635113Y257483D01*
X633964Y256334D02*
X634460Y256830D01*
X624409Y232087D02*
Y238779D01*
X624409Y238779D02*
X624409Y238779D01*
X624409Y232087D02*
X624409Y232087D01*
X627362Y247835D02*
X633964Y254436D01*
Y256334D01*
X624409Y246260D02*
X625984Y247835D01*
X627362D01*
X634460Y345807D02*
X635113Y346459D01*
X633964Y345310D02*
X634460Y345807D01*
X624409Y321063D02*
Y327756D01*
X624409Y327756D02*
X624409Y327756D01*
X624409Y321063D02*
X624409Y321063D01*
X627362Y336811D02*
X633964Y343413D01*
Y345310D01*
X624409Y335236D02*
X625984Y336811D01*
X627362D01*
X625984Y425787D02*
X627362D01*
X624409Y424213D02*
X625984Y425787D01*
X633964Y432389D02*
Y434287D01*
X627362Y425787D02*
X633964Y432389D01*
X624409Y410039D02*
X624409Y410039D01*
X624409Y416732D02*
X624409Y416732D01*
Y410039D02*
Y416732D01*
X633964Y434287D02*
X634460Y434783D01*
X635113Y435435D01*
D12*
X255118Y434410D02*
Y440945D01*
X252362Y431654D02*
X255118Y434410D01*
X250394Y445669D02*
X255118Y440945D01*
X250394Y445669D02*
Y462520D01*
X240315Y461187D02*
Y462598D01*
X241339Y437598D02*
Y460163D01*
X240315Y461187D02*
X241339Y460163D01*
X251181Y430118D02*
X252362Y431299D01*
X250394Y430118D02*
X251181D01*
X252362Y431299D02*
Y431654D01*
X237008Y434055D02*
X240551Y437598D01*
X237008Y423971D02*
Y434055D01*
X240551Y437598D02*
X241339D01*
X246063Y424016D02*
Y434055D01*
X249606Y437598D01*
X250394D01*
X236417Y493307D02*
X236516Y493209D01*
Y487894D02*
Y493209D01*
Y487894D02*
X236614Y487795D01*
Y493504D02*
Y508465D01*
X236417Y493307D02*
X236614Y493504D01*
X227165Y500945D02*
X234055D01*
Y500984D01*
X217913Y504724D02*
X219291D01*
X217421Y504232D02*
X217913Y504724D01*
X217421Y502854D02*
Y504232D01*
X215748Y501181D02*
X217421Y502854D01*
X211024Y501181D02*
X215748D01*
D14*
X500197Y539764D02*
D03*
X479331D02*
D03*
X538779D02*
D03*
X517913D02*
D03*
X336417Y526378D02*
D03*
X357283D02*
D03*
X318307D02*
D03*
X297441D02*
D03*
X318307Y495669D02*
D03*
X297441D02*
D03*
X336417D02*
D03*
X357283D02*
D03*
D15*
X457480Y563976D02*
D03*
Y580118D02*
D03*
D16*
X474016Y567913D02*
D03*
Y561221D02*
D03*
X574409Y512008D02*
D03*
Y505315D02*
D03*
X544488Y576575D02*
D03*
Y569882D02*
D03*
X246063Y508071D02*
D03*
Y501378D02*
D03*
X169291Y476181D02*
D03*
Y469488D02*
D03*
D17*
X482283Y575787D02*
D03*
Y583268D02*
D03*
X474016Y575787D02*
D03*
Y583268D02*
D03*
X482283Y568307D02*
D03*
Y560827D02*
D03*
X465748Y552165D02*
D03*
Y544685D02*
D03*
X250394Y437598D02*
D03*
Y430118D02*
D03*
X241339D02*
D03*
Y437598D02*
D03*
X624409Y505315D02*
D03*
Y512795D02*
D03*
X633465Y505315D02*
D03*
Y512795D02*
D03*
X624409Y491929D02*
D03*
Y499409D02*
D03*
X574409Y526968D02*
D03*
Y534449D02*
D03*
X536221Y576968D02*
D03*
Y569488D02*
D03*
X253937Y500984D02*
D03*
Y508465D02*
D03*
X117717Y476968D02*
D03*
Y469488D02*
D03*
X211024Y508661D02*
D03*
Y501181D02*
D03*
X394488Y113976D02*
D03*
Y106496D02*
D03*
X418898Y113976D02*
D03*
Y106496D02*
D03*
X443701Y113976D02*
D03*
Y106496D02*
D03*
X468110Y113976D02*
D03*
Y106496D02*
D03*
X492913Y113976D02*
D03*
Y106496D02*
D03*
X517717Y113976D02*
D03*
Y106496D02*
D03*
X542126Y113976D02*
D03*
Y106496D02*
D03*
X566929Y113976D02*
D03*
Y106496D02*
D03*
X591339Y113976D02*
D03*
Y106496D02*
D03*
X616142Y113976D02*
D03*
Y106496D02*
D03*
X640551Y113976D02*
D03*
Y106496D02*
D03*
X665354Y113976D02*
D03*
Y106496D02*
D03*
X624409Y416732D02*
D03*
Y424213D02*
D03*
X577223Y428083D02*
D03*
Y435563D02*
D03*
Y440484D02*
D03*
Y447964D02*
D03*
X624409Y430118D02*
D03*
Y437598D02*
D03*
X624409Y450984D02*
D03*
Y443504D02*
D03*
Y362008D02*
D03*
Y354528D02*
D03*
X624409Y341142D02*
D03*
Y348622D02*
D03*
Y327756D02*
D03*
Y335236D02*
D03*
X577223Y339106D02*
D03*
Y346587D02*
D03*
Y351508D02*
D03*
Y358988D02*
D03*
X624409Y238779D02*
D03*
Y246260D02*
D03*
X577223Y250130D02*
D03*
Y257610D02*
D03*
X624409Y252165D02*
D03*
Y259646D02*
D03*
X624409Y273031D02*
D03*
Y265551D02*
D03*
X577223Y262531D02*
D03*
Y270012D02*
D03*
X624409Y163189D02*
D03*
Y170669D02*
D03*
X624409Y184055D02*
D03*
Y176575D02*
D03*
X577223Y173555D02*
D03*
Y181035D02*
D03*
Y161153D02*
D03*
Y168634D02*
D03*
X624409Y149803D02*
D03*
Y157283D02*
D03*
X457480Y362008D02*
D03*
Y354528D02*
D03*
Y273031D02*
D03*
Y265551D02*
D03*
Y184055D02*
D03*
Y176575D02*
D03*
Y341142D02*
D03*
Y348622D02*
D03*
X410294Y351508D02*
D03*
Y358988D02*
D03*
Y339106D02*
D03*
Y346587D02*
D03*
X457480Y327756D02*
D03*
Y335236D02*
D03*
Y252165D02*
D03*
Y259646D02*
D03*
X410294Y262531D02*
D03*
Y270012D02*
D03*
Y250130D02*
D03*
Y257610D02*
D03*
X457480Y238779D02*
D03*
Y246260D02*
D03*
X457480Y163189D02*
D03*
Y170669D02*
D03*
X410294Y173555D02*
D03*
Y181035D02*
D03*
Y161153D02*
D03*
Y168634D02*
D03*
X457480Y149803D02*
D03*
Y157283D02*
D03*
X457480Y416732D02*
D03*
Y424213D02*
D03*
Y430118D02*
D03*
Y437598D02*
D03*
Y450984D02*
D03*
Y443504D02*
D03*
X410294Y440484D02*
D03*
Y447964D02*
D03*
Y428083D02*
D03*
Y435563D02*
D03*
X370472Y526575D02*
D03*
Y519095D02*
D03*
X284252Y526181D02*
D03*
Y518701D02*
D03*
D18*
X130512Y511811D02*
D03*
X144291D02*
D03*
D19*
X151378Y511417D02*
D03*
X158858D02*
D03*
X228937Y493307D02*
D03*
X236417D02*
D03*
X152559Y459449D02*
D03*
X145079D02*
D03*
X131299D02*
D03*
X138779D02*
D03*
X597835Y461024D02*
D03*
X605315D02*
D03*
X597835Y283071D02*
D03*
X605315D02*
D03*
X597835Y372047D02*
D03*
X605315D02*
D03*
X597835Y194095D02*
D03*
X605315D02*
D03*
X430905Y372047D02*
D03*
X438386D02*
D03*
X430905Y283071D02*
D03*
X438386D02*
D03*
X430905Y194095D02*
D03*
X438386D02*
D03*
X430905Y461024D02*
D03*
X438386D02*
D03*
D20*
X633465Y492323D02*
D03*
Y498228D02*
D03*
X400787Y107283D02*
D03*
Y113189D02*
D03*
X425197Y107283D02*
D03*
Y113189D02*
D03*
X450000Y107283D02*
D03*
Y113189D02*
D03*
X474409Y107283D02*
D03*
Y113189D02*
D03*
X499213Y107283D02*
D03*
Y113189D02*
D03*
X524016Y107283D02*
D03*
Y113189D02*
D03*
X548425Y107283D02*
D03*
Y113189D02*
D03*
X573228Y107283D02*
D03*
Y113189D02*
D03*
X597638Y107283D02*
D03*
Y113189D02*
D03*
X622441Y107283D02*
D03*
Y113189D02*
D03*
X646850Y107283D02*
D03*
Y113189D02*
D03*
X671654Y107283D02*
D03*
Y113189D02*
D03*
X624409Y404134D02*
D03*
Y410039D02*
D03*
Y315158D02*
D03*
Y321063D02*
D03*
Y226181D02*
D03*
Y232087D02*
D03*
Y137205D02*
D03*
Y143110D02*
D03*
X457480Y315158D02*
D03*
Y321063D02*
D03*
Y226181D02*
D03*
Y232087D02*
D03*
X457480Y137205D02*
D03*
Y143110D02*
D03*
X457480Y404134D02*
D03*
Y410039D02*
D03*
D21*
X609646Y492913D02*
D03*
X616338D02*
D03*
X608071Y546063D02*
D03*
X614764D02*
D03*
X522244Y558268D02*
D03*
X528937D02*
D03*
X502165D02*
D03*
X508858D02*
D03*
X330906Y462992D02*
D03*
X337598D02*
D03*
X324213D02*
D03*
X317520D02*
D03*
X591142Y411417D02*
D03*
X584449D02*
D03*
X591142Y322441D02*
D03*
X584449D02*
D03*
X591535Y461024D02*
D03*
X584843D02*
D03*
X611614D02*
D03*
X618307D02*
D03*
X611614Y283071D02*
D03*
X618307D02*
D03*
X591535D02*
D03*
X584843D02*
D03*
X611614Y372047D02*
D03*
X618307D02*
D03*
X591535D02*
D03*
X584843D02*
D03*
X591142Y233465D02*
D03*
X584449D02*
D03*
X591142Y144488D02*
D03*
X584449D02*
D03*
X611614Y194095D02*
D03*
X618307D02*
D03*
X591535D02*
D03*
X584843D02*
D03*
X424606Y372047D02*
D03*
X417913D02*
D03*
X444685D02*
D03*
X451378D02*
D03*
X424213Y322441D02*
D03*
X417520D02*
D03*
X424606Y283071D02*
D03*
X417913D02*
D03*
X444685D02*
D03*
X451378D02*
D03*
X424213Y233465D02*
D03*
X417520D02*
D03*
X424606Y194095D02*
D03*
X417913D02*
D03*
X444685D02*
D03*
X451378D02*
D03*
X424213Y144488D02*
D03*
X417520D02*
D03*
X444685Y461024D02*
D03*
X451378D02*
D03*
X424606D02*
D03*
X417913D02*
D03*
X424213Y411417D02*
D03*
X417520D02*
D03*
D22*
X239173Y500984D02*
D03*
X234055D02*
D03*
Y508465D02*
D03*
X236614D02*
D03*
X239173D02*
D03*
D23*
X219291Y504724D02*
D03*
X227165Y508504D02*
D03*
Y500945D02*
D03*
D24*
X542520Y436654D02*
D03*
Y431063D02*
D03*
Y413347D02*
D03*
Y418937D02*
D03*
Y347677D02*
D03*
Y342087D02*
D03*
Y324370D02*
D03*
Y329961D02*
D03*
Y258701D02*
D03*
Y253110D02*
D03*
Y235394D02*
D03*
Y240984D02*
D03*
Y169724D02*
D03*
Y164134D02*
D03*
Y146417D02*
D03*
Y152008D02*
D03*
X375591Y347677D02*
D03*
Y342087D02*
D03*
Y324370D02*
D03*
Y329961D02*
D03*
Y258701D02*
D03*
Y253110D02*
D03*
Y235394D02*
D03*
Y240984D02*
D03*
X375591Y169724D02*
D03*
Y164134D02*
D03*
Y146417D02*
D03*
Y152008D02*
D03*
X375591Y436654D02*
D03*
Y431063D02*
D03*
Y413346D02*
D03*
Y418937D02*
D03*
D59*
X633465Y567323D02*
Y577323D01*
X458268Y583268D02*
X474016D01*
X375591Y413346D02*
X375610Y413366D01*
X394075D01*
X394094Y413386D01*
Y425197D02*
X394859Y425961D01*
X397615D02*
X406273Y434620D01*
X394859Y425961D02*
X397615D01*
X406273Y434620D02*
X409350D01*
X375591Y436654D02*
X393740D01*
X392096Y439006D02*
X394094Y437008D01*
X393740Y436654D02*
X394094Y437008D01*
X438386Y442097D02*
Y461024D01*
X438414Y470107D02*
X439567Y471260D01*
X438414Y461839D02*
Y470107D01*
X438386Y442097D02*
X449242Y431240D01*
X439567Y471260D02*
X480865D01*
X483227Y468898D01*
X424606Y461024D02*
X430905D01*
X409350Y434620D02*
X410294Y435563D01*
Y440484D01*
X397992Y431063D02*
X401181Y434252D01*
X375591Y431063D02*
X397992D01*
X401181Y434252D02*
Y439640D01*
X409506Y447964D02*
X410294D01*
X401181Y439640D02*
X409506Y447964D01*
X411081D02*
X412065Y448949D01*
Y450130D01*
X412836Y450901D01*
X417643D01*
X410294Y440484D02*
X410672Y440862D01*
X417605D01*
X417982Y441240D01*
X457480Y437598D02*
X457512D01*
X457480D02*
X458268D01*
X449242Y441240D02*
X450521D01*
X452074Y442793D01*
X456769D01*
X457480Y443504D01*
X460431Y435435D02*
X468184D01*
X457512Y437598D02*
Y441240D01*
X457496D02*
Y442307D01*
X457512Y441240D02*
X457512Y441240D01*
X458268Y437598D02*
X460431Y435435D01*
X455571Y431240D02*
X456693Y430118D01*
X457480D01*
X449242Y431240D02*
X455571D01*
X468184Y425435D02*
X507635D01*
X516586Y434386D01*
X527252D01*
Y414701D02*
Y424543D01*
X532283Y429575D01*
X493307Y468898D02*
X503150D01*
X532283Y429575D02*
Y439764D01*
X503150Y468898D02*
X532283Y439764D01*
X493307Y468898D02*
Y478898D01*
X483227Y468898D02*
X493307D01*
X468184Y445435D02*
X481646Y458898D01*
X493307D01*
X449242Y452519D02*
X451378Y454654D01*
Y461024D01*
X449242Y431240D02*
Y431240D01*
X417751Y411649D02*
Y421009D01*
X417643Y450901D02*
X417982Y451240D01*
X417913Y451309D02*
Y461024D01*
Y451309D02*
X417982Y451240D01*
X465747Y436567D02*
X467052D01*
X467531Y436088D02*
X468184Y435435D01*
X467052Y436567D02*
X467531Y436088D01*
X410236Y411417D02*
X417520D01*
X450000Y462402D02*
X451279Y461122D01*
Y466437D01*
X375591Y418937D02*
Y431063D01*
X582313Y534449D02*
X583337Y535472D01*
X574409Y534449D02*
X582313D01*
X562992Y532598D02*
X564843Y534449D01*
X574409D01*
Y526968D02*
X575157Y526221D01*
X582589D01*
X583337Y525472D01*
X451279Y194193D02*
Y199508D01*
X451279Y283169D02*
Y288484D01*
Y372146D02*
Y377461D01*
X618209Y194193D02*
Y199508D01*
Y283169D02*
Y288484D01*
Y372146D02*
Y377461D01*
Y461122D02*
Y466437D01*
X618110Y466535D02*
X618209Y466437D01*
X210945Y508740D02*
X211024Y508661D01*
X200079Y508740D02*
X210945D01*
X200000Y508819D02*
X200079Y508740D01*
X616338Y492913D02*
X616831Y492421D01*
X623917D01*
X624409Y491929D01*
X583337Y535472D02*
X600000Y518809D01*
Y502559D02*
Y518809D01*
Y502559D02*
X609646Y492913D01*
X624409Y499409D02*
Y505315D01*
X623622D02*
X624409D01*
X614597Y514340D02*
X623622Y505315D01*
X614597Y514340D02*
Y515472D01*
X624409Y512795D02*
X633465D01*
X623622D02*
X624409D01*
X622638Y513779D02*
X623622Y512795D01*
X622638Y513779D02*
Y517431D01*
X614597Y525472D02*
X622638Y517431D01*
X583091Y525718D02*
X583337Y525472D01*
X622767Y567323D02*
X633465D01*
X211024Y531317D02*
X215748Y536041D01*
Y536614D01*
X254134Y508465D02*
X255118Y509449D01*
Y536614D01*
X253937Y508465D02*
X254134D01*
X211024Y508661D02*
Y531317D01*
X633465Y567323D02*
X669551D01*
X699213Y537661D01*
X694181Y512598D02*
Y522441D01*
X699213Y527472D02*
Y537661D01*
X694181Y522441D02*
X699213Y527472D01*
X375591Y329961D02*
Y342087D01*
X450000Y373425D02*
X451279Y372146D01*
X410236Y322441D02*
X417520D01*
X467531Y347112D02*
X468184Y346459D01*
X467052Y347591D02*
X467531Y347112D01*
X465747Y347591D02*
X467052D01*
X417913Y362333D02*
X417982Y362264D01*
X417643Y361925D02*
X417982Y362264D01*
X417913Y362333D02*
Y372047D01*
X417751Y322672D02*
Y332032D01*
X449242Y342264D02*
Y342264D01*
X451378Y365678D02*
Y372047D01*
X449242Y363542D02*
X451378Y365678D01*
X481646Y369921D02*
X493307D01*
X468184Y356459D02*
X481646Y369921D01*
X483227Y379921D02*
X493307D01*
Y389921D01*
Y379921D02*
X503150D01*
X532283Y340599D02*
Y350787D01*
X503150Y379921D02*
X532283Y350787D01*
X527252Y335567D02*
X532283Y340599D01*
X527252Y325725D02*
Y335567D01*
X516586Y345410D02*
X527252D01*
X507635Y336459D02*
X516586Y345410D01*
X468184Y336459D02*
X507635D01*
X455571Y342264D02*
X456693Y341142D01*
X457480D01*
X449242Y342264D02*
X455571D01*
X460431Y346459D02*
X468184D01*
X458268Y348622D02*
X460431Y346459D01*
X457512Y348622D02*
Y352264D01*
X456769Y353817D02*
X457480Y354528D01*
X457496Y352264D02*
Y353331D01*
X452074Y353817D02*
X456769D01*
X450521Y352264D02*
X452074Y353817D01*
X449242Y352264D02*
X450521D01*
X457480Y348622D02*
X458268D01*
X457512Y352264D02*
X457512Y352264D01*
X457480Y348622D02*
X457512D01*
X417605Y351886D02*
X417982Y352264D01*
X410294Y351508D02*
X410672Y351886D01*
X417605D01*
X412836Y361925D02*
X417643D01*
X412065Y361154D02*
X412836Y361925D01*
X412065Y359972D02*
Y361154D01*
X411081Y358988D02*
X412065Y359972D01*
X401181Y350663D02*
X409506Y358988D01*
X410294D01*
X401181Y345276D02*
Y350663D01*
X375591Y342087D02*
X397992D01*
X401181Y345276D01*
X409350Y345643D02*
X410294Y346587D01*
Y351508D01*
X424606Y372047D02*
X430905D01*
X480865Y382283D02*
X483227Y379921D01*
X439567Y382283D02*
X480865D01*
X438386Y353120D02*
X449242Y342264D01*
X438414Y372863D02*
Y381130D01*
X439567Y382283D01*
X438386Y353120D02*
Y372047D01*
X393740Y347677D02*
X394094Y348031D01*
X392096Y350029D02*
X394094Y348031D01*
X375591Y347677D02*
X393740D01*
X406273Y345643D02*
X409350D01*
X394859Y336985D02*
X397615D01*
X406273Y345643D01*
X394094Y336221D02*
X394859Y336985D01*
X394075Y324390D02*
X394094Y324410D01*
X375610Y324390D02*
X394075D01*
X375591Y324370D02*
X375610Y324390D01*
X375591Y240984D02*
Y253110D01*
X450000Y284449D02*
X451279Y283169D01*
X410236Y233465D02*
X417520D01*
X467531Y258135D02*
X468184Y257483D01*
X467052Y258614D02*
X467531Y258135D01*
X465747Y258614D02*
X467052D01*
X417913Y273356D02*
X417982Y273287D01*
X417643Y272948D02*
X417982Y273287D01*
X417913Y273356D02*
Y283071D01*
X417751Y233696D02*
Y243056D01*
X449242Y253287D02*
Y253287D01*
X451378Y276701D02*
Y283071D01*
X449242Y274566D02*
X451378Y276701D01*
X481646Y280945D02*
X493307D01*
X468184Y267483D02*
X481646Y280945D01*
X483227Y290945D02*
X493307D01*
Y300945D01*
Y290945D02*
X503150D01*
X532283Y251622D02*
Y261811D01*
X503150Y290945D02*
X532283Y261811D01*
X527252Y246591D02*
X532283Y251622D01*
X527252Y236748D02*
Y246591D01*
X516586Y256433D02*
X527252D01*
X507635Y247483D02*
X516586Y256433D01*
X468184Y247483D02*
X507635D01*
X455571Y253287D02*
X456693Y252165D01*
X457480D01*
X449242Y253287D02*
X455571D01*
X460431Y257483D02*
X468184D01*
X458268Y259646D02*
X460431Y257483D01*
X457512Y259646D02*
Y263287D01*
X456769Y264840D02*
X457480Y265551D01*
X457496Y263287D02*
Y264354D01*
X452074Y264840D02*
X456769D01*
X450521Y263287D02*
X452074Y264840D01*
X449242Y263287D02*
X450521D01*
X457480Y259646D02*
X458268D01*
X457512Y263287D02*
X457512Y263287D01*
X457480Y259646D02*
X457512D01*
X417605Y262909D02*
X417982Y263287D01*
X410294Y262531D02*
X410672Y262909D01*
X417605D01*
X412836Y272948D02*
X417643D01*
X412065Y272177D02*
X412836Y272948D01*
X412065Y270996D02*
Y272177D01*
X411081Y270012D02*
X412065Y270996D01*
X401181Y261687D02*
X409506Y270012D01*
X410294D01*
X401181Y256299D02*
Y261687D01*
X375591Y253110D02*
X397992D01*
X401181Y256299D01*
X409350Y256667D02*
X410294Y257610D01*
Y262531D01*
X424606Y283071D02*
X430905D01*
X480865Y293307D02*
X483227Y290945D01*
X439567Y293307D02*
X480865D01*
X438386Y264144D02*
X449242Y253287D01*
X438414Y283886D02*
Y292154D01*
X439567Y293307D01*
X438386Y264144D02*
Y283071D01*
X393740Y258701D02*
X394094Y259055D01*
X392096Y261053D02*
X394094Y259055D01*
X375591Y258701D02*
X393740D01*
X406273Y256667D02*
X409350D01*
X394859Y248009D02*
X397615D01*
X406273Y256667D01*
X394094Y247244D02*
X394859Y248009D01*
X394075Y235413D02*
X394094Y235433D01*
X375610Y235413D02*
X394075D01*
X375591Y235394D02*
X375610Y235413D01*
X375591Y152008D02*
Y164134D01*
X450000Y195473D02*
X451279Y194193D01*
X410236Y144488D02*
X417520D01*
X467531Y169159D02*
X468184Y168506D01*
X467052Y169638D02*
X467531Y169159D01*
X465747Y169638D02*
X467052D01*
X417913Y184380D02*
X417982Y184311D01*
X417643Y183972D02*
X417982Y184311D01*
X417913Y184380D02*
Y194095D01*
X417751Y144720D02*
Y154079D01*
X449242Y164311D02*
Y164311D01*
X451378Y187725D02*
Y194095D01*
X449242Y185589D02*
X451378Y187725D01*
X481646Y191969D02*
X493307D01*
X468184Y178506D02*
X481646Y191969D01*
X483227Y201969D02*
X493307D01*
Y211968D01*
Y201969D02*
X503150D01*
X532283Y162646D02*
Y172835D01*
X503150Y201969D02*
X532283Y172835D01*
X527252Y157614D02*
X532283Y162646D01*
X527252Y147772D02*
Y157614D01*
X516586Y167457D02*
X527252D01*
X507635Y158506D02*
X516586Y167457D01*
X468184Y158506D02*
X507635D01*
X455571Y164311D02*
X456693Y163189D01*
X457480D01*
X449242Y164311D02*
X455571D01*
X460431Y168506D02*
X468184D01*
X458268Y170669D02*
X460431Y168506D01*
X457512Y170669D02*
Y174311D01*
X456769Y175864D02*
X457480Y176575D01*
X457496Y174311D02*
Y175378D01*
X452074Y175864D02*
X456769D01*
X450521Y174311D02*
X452074Y175864D01*
X449242Y174311D02*
X450521D01*
X457480Y170669D02*
X458268D01*
X457512Y174311D02*
X457512Y174311D01*
X457480Y170669D02*
X457512D01*
X417605Y173933D02*
X417982Y174311D01*
X410294Y173555D02*
X410672Y173933D01*
X417605D01*
X412836Y183972D02*
X417643D01*
X412065Y183201D02*
X412836Y183972D01*
X412065Y182020D02*
Y183201D01*
X411081Y181035D02*
X412065Y182020D01*
X401181Y172710D02*
X409506Y181035D01*
X410294D01*
X401181Y167323D02*
Y172710D01*
X375591Y164134D02*
X397992D01*
X401181Y167323D01*
X409350Y167691D02*
X410294Y168634D01*
Y173555D01*
X424606Y194095D02*
X430905D01*
X480865Y204331D02*
X483227Y201969D01*
X439567Y204331D02*
X480865D01*
X438386Y175168D02*
X449242Y164311D01*
X438414Y194910D02*
Y203178D01*
X439567Y204331D01*
X438386Y175168D02*
Y194095D01*
X393740Y169724D02*
X394094Y170079D01*
X392096Y172077D02*
X394094Y170079D01*
X375591Y169724D02*
X393740D01*
X406273Y167691D02*
X409350D01*
X394859Y159032D02*
X397615D01*
X406273Y167691D01*
X394094Y158268D02*
X394859Y159032D01*
X394075Y146437D02*
X394094Y146457D01*
X375610Y146437D02*
X394075D01*
X375591Y146417D02*
X375610Y146437D01*
X542520Y152008D02*
Y164134D01*
X616929Y195473D02*
X618209Y194193D01*
X577165Y144488D02*
X584449D01*
X634460Y169159D02*
X635113Y168506D01*
X633981Y169638D02*
X634460Y169159D01*
X632676Y169638D02*
X633981D01*
X584843Y184380D02*
X584912Y184311D01*
X584573Y183972D02*
X584912Y184311D01*
X584843Y184380D02*
Y194095D01*
X584680Y144720D02*
Y154079D01*
X616172Y164311D02*
Y164311D01*
X618307Y187725D02*
Y194095D01*
X616172Y185589D02*
X618307Y187725D01*
X648575Y191969D02*
X660236D01*
X635113Y178506D02*
X648575Y191969D01*
X650156Y201969D02*
X660236D01*
Y211968D01*
Y201969D02*
X670079D01*
X699213Y162646D02*
Y172835D01*
X670079Y201969D02*
X699213Y172835D01*
X694181Y157614D02*
X699213Y162646D01*
X694181Y147772D02*
Y157614D01*
X683515Y167457D02*
X694181D01*
X674565Y158506D02*
X683515Y167457D01*
X635113Y158506D02*
X674565D01*
X622500Y164311D02*
X623622Y163189D01*
X624409D01*
X616172Y164311D02*
X622500D01*
X627360Y168506D02*
X635113D01*
X625197Y170669D02*
X627360Y168506D01*
X624441Y170669D02*
Y174311D01*
X623699Y175864D02*
X624409Y176575D01*
X624425Y174311D02*
Y175378D01*
X619003Y175864D02*
X623699D01*
X617450Y174311D02*
X619003Y175864D01*
X616172Y174311D02*
X617450D01*
X624409Y170669D02*
X625197D01*
X624441Y174311D02*
X624441Y174311D01*
X624409Y170669D02*
X624441D01*
X584534Y173933D02*
X584912Y174311D01*
X577223Y173555D02*
X577601Y173933D01*
X584534D01*
X579766Y183972D02*
X584573D01*
X578994Y183201D02*
X579766Y183972D01*
X578994Y182020D02*
Y183201D01*
X578010Y181035D02*
X578994Y182020D01*
X568110Y172710D02*
X576435Y181035D01*
X577223D01*
X568110Y167323D02*
Y172710D01*
X542520Y164134D02*
X564921D01*
X568110Y167323D01*
X576280Y167691D02*
X577223Y168634D01*
Y173555D01*
X591535Y194095D02*
X597835D01*
X647794Y204331D02*
X650156Y201969D01*
X606496Y204331D02*
X647794D01*
X605315Y175168D02*
X616172Y164311D01*
X605343Y194910D02*
Y203178D01*
X606496Y204331D01*
X605315Y175168D02*
Y194095D01*
X560669Y169724D02*
X561024Y170079D01*
X559026Y172077D02*
X561024Y170079D01*
X542520Y169724D02*
X560669D01*
X573203Y167691D02*
X576280D01*
X561788Y159032D02*
X564544D01*
X573203Y167691D01*
X561024Y158268D02*
X561788Y159032D01*
X561004Y146437D02*
X561024Y146457D01*
X542539Y146437D02*
X561004D01*
X542520Y146417D02*
X542539Y146437D01*
X542520Y240984D02*
Y253110D01*
X616929Y284449D02*
X618209Y283169D01*
X577165Y233465D02*
X584449D01*
X634460Y258135D02*
X635113Y257483D01*
X633981Y258614D02*
X634460Y258135D01*
X632676Y258614D02*
X633981D01*
X584843Y273356D02*
X584912Y273287D01*
X584573Y272948D02*
X584912Y273287D01*
X584843Y273356D02*
Y283071D01*
X584680Y233696D02*
Y243056D01*
X616172Y253287D02*
Y253287D01*
X618307Y276701D02*
Y283071D01*
X616172Y274566D02*
X618307Y276701D01*
X648575Y280945D02*
X660236D01*
X635113Y267483D02*
X648575Y280945D01*
X650156Y290945D02*
X660236D01*
Y300945D01*
Y290945D02*
X670079D01*
X699213Y251622D02*
Y261811D01*
X670079Y290945D02*
X699213Y261811D01*
X694181Y246591D02*
X699213Y251622D01*
X694181Y236748D02*
Y246591D01*
X683515Y256433D02*
X694181D01*
X674565Y247483D02*
X683515Y256433D01*
X635113Y247483D02*
X674565D01*
X622500Y253287D02*
X623622Y252165D01*
X624409D01*
X616172Y253287D02*
X622500D01*
X627360Y257483D02*
X635113D01*
X625197Y259646D02*
X627360Y257483D01*
X624441Y259646D02*
Y263287D01*
X623699Y264840D02*
X624409Y265551D01*
X624425Y263287D02*
Y264354D01*
X619003Y264840D02*
X623699D01*
X617450Y263287D02*
X619003Y264840D01*
X616172Y263287D02*
X617450D01*
X624409Y259646D02*
X625197D01*
X624441Y263287D02*
X624441Y263287D01*
X624409Y259646D02*
X624441D01*
X584534Y262909D02*
X584912Y263287D01*
X577223Y262531D02*
X577601Y262909D01*
X584534D01*
X579766Y272948D02*
X584573D01*
X578994Y272177D02*
X579766Y272948D01*
X578994Y270996D02*
Y272177D01*
X578010Y270012D02*
X578994Y270996D01*
X568110Y261687D02*
X576435Y270012D01*
X577223D01*
X568110Y256299D02*
Y261687D01*
X542520Y253110D02*
X564921D01*
X568110Y256299D01*
X576280Y256667D02*
X577223Y257610D01*
Y262531D01*
X591535Y283071D02*
X597835D01*
X647794Y293307D02*
X650156Y290945D01*
X606496Y293307D02*
X647794D01*
X605315Y264144D02*
X616172Y253287D01*
X605343Y283886D02*
Y292154D01*
X606496Y293307D01*
X605315Y264144D02*
Y283071D01*
X560669Y258701D02*
X561024Y259055D01*
X559026Y261053D02*
X561024Y259055D01*
X542520Y258701D02*
X560669D01*
X573203Y256667D02*
X576280D01*
X561788Y248009D02*
X564544D01*
X573203Y256667D01*
X561024Y247244D02*
X561788Y248009D01*
X561004Y235413D02*
X561024Y235433D01*
X542539Y235413D02*
X561004D01*
X542520Y235394D02*
X542539Y235413D01*
X542520Y329961D02*
Y342087D01*
X616929Y373425D02*
X618209Y372146D01*
X577165Y322441D02*
X584449D01*
X634460Y347112D02*
X635113Y346459D01*
X633981Y347591D02*
X634460Y347112D01*
X632676Y347591D02*
X633981D01*
X584843Y362333D02*
X584912Y362264D01*
X584573Y361925D02*
X584912Y362264D01*
X584843Y362333D02*
Y372047D01*
X584680Y322672D02*
Y332032D01*
X616172Y342264D02*
Y342264D01*
X618307Y365678D02*
Y372047D01*
X616172Y363542D02*
X618307Y365678D01*
X648575Y369921D02*
X660236D01*
X635113Y356459D02*
X648575Y369921D01*
X650156Y379921D02*
X660236D01*
Y389921D01*
Y379921D02*
X670079D01*
X699213Y340599D02*
Y350787D01*
X670079Y379921D02*
X699213Y350787D01*
X694181Y335567D02*
X699213Y340599D01*
X694181Y325725D02*
Y335567D01*
X683515Y345409D02*
X694181D01*
X674565Y336459D02*
X683515Y345409D01*
X635113Y336459D02*
X674565D01*
X622500Y342264D02*
X623622Y341142D01*
X624409D01*
X616172Y342264D02*
X622500D01*
X627360Y346459D02*
X635113D01*
X625197Y348622D02*
X627360Y346459D01*
X624441Y348622D02*
Y352264D01*
X623699Y353817D02*
X624409Y354528D01*
X624425Y352264D02*
Y353331D01*
X619003Y353817D02*
X623699D01*
X617450Y352264D02*
X619003Y353817D01*
X616172Y352264D02*
X617450D01*
X624409Y348622D02*
X625197D01*
X624441Y352264D02*
X624441Y352264D01*
X624409Y348622D02*
X624441D01*
X584534Y351886D02*
X584912Y352264D01*
X577223Y351508D02*
X577601Y351886D01*
X584534D01*
X579766Y361925D02*
X584573D01*
X578994Y361154D02*
X579766Y361925D01*
X578994Y359972D02*
Y361154D01*
X578010Y358988D02*
X578994Y359972D01*
X568110Y350663D02*
X576435Y358988D01*
X577223D01*
X568110Y345276D02*
Y350663D01*
X542520Y342087D02*
X564921D01*
X568110Y345276D01*
X576280Y345643D02*
X577223Y346587D01*
Y351508D01*
X591535Y372047D02*
X597835D01*
X647794Y382283D02*
X650156Y379921D01*
X606496Y382283D02*
X647794D01*
X605315Y353120D02*
X616172Y342264D01*
X605343Y372863D02*
Y381130D01*
X606496Y382283D01*
X605315Y353120D02*
Y372047D01*
X560669Y347677D02*
X561024Y348031D01*
X559026Y350029D02*
X561024Y348031D01*
X542520Y347677D02*
X560669D01*
X573203Y345643D02*
X576280D01*
X561788Y336985D02*
X564544D01*
X573203Y345643D01*
X561024Y336221D02*
X561788Y336985D01*
X561004Y324390D02*
X561024Y324410D01*
X542539Y324390D02*
X561004D01*
X542520Y324370D02*
X542539Y324390D01*
X605315Y442097D02*
Y461024D01*
Y442097D02*
X616172Y431240D01*
X606496Y471260D02*
X647794D01*
X650156Y468898D02*
X660236D01*
X605343Y461839D02*
Y470107D01*
X647794Y471260D02*
X650156Y468898D01*
X605343Y470107D02*
X606496Y471260D01*
X542520Y431063D02*
X564921D01*
X568110Y434252D01*
Y439640D01*
X576435Y447964D01*
X577223D01*
X561024Y425197D02*
X561788Y425961D01*
X573203Y434620D02*
X576280D01*
X577223Y435563D01*
X561788Y425961D02*
X564544D01*
X573203Y434620D01*
X614272Y505797D02*
X614597Y505472D01*
X542520Y413347D02*
X542539Y413366D01*
X561004D01*
X561024Y413386D01*
X542520Y436654D02*
X560669D01*
X559026Y439006D02*
X561024Y437008D01*
X560669Y436654D02*
X561024Y437008D01*
X616172Y431240D02*
Y431240D01*
X591535Y461024D02*
X597835D01*
X577223Y435563D02*
Y440484D01*
X578994Y448949D02*
Y450130D01*
X578010Y447964D02*
X578994Y448949D01*
X579766Y450901D02*
X584573D01*
X578994Y450130D02*
X579766Y450901D01*
X577223Y440484D02*
X577601Y440862D01*
X584534D01*
X584912Y441240D01*
X624409Y437598D02*
X624441D01*
X624409D02*
X625197D01*
X616172Y441240D02*
X617450D01*
X619003Y442793D01*
X623699D01*
X624409Y443504D01*
X627360Y435435D02*
X635113D01*
X624441Y437598D02*
Y441240D01*
X624425D02*
Y442307D01*
X624441Y441240D02*
X624441Y441240D01*
X625197Y437598D02*
X627360Y435435D01*
X622500Y431240D02*
X623622Y430118D01*
X624409D01*
X616172Y431240D02*
X622500D01*
X635113Y425435D02*
X674565D01*
X683515Y434386D01*
X694181D01*
Y414701D02*
Y424543D01*
X699213Y429575D01*
X660236Y468898D02*
X670079D01*
X699213Y429575D02*
Y439764D01*
X670079Y468898D02*
X699213Y439764D01*
X660236Y468898D02*
Y478898D01*
X635113Y445435D02*
X648575Y458898D01*
X660236D01*
X616172Y452519D02*
X618307Y454654D01*
Y461024D01*
X584680Y411649D02*
Y421009D01*
X584573Y450901D02*
X584912Y451240D01*
X584843Y451309D02*
Y461024D01*
Y451309D02*
X584912Y451240D01*
X632676Y436567D02*
X633981D01*
X634460Y436088D02*
X635113Y435435D01*
X633981Y436567D02*
X634460Y436088D01*
X577165Y411417D02*
X584449D01*
X542520Y418937D02*
Y431063D01*
X585276Y567323D02*
X595276D01*
X633465Y542753D02*
Y557323D01*
Y542753D02*
X633538Y542680D01*
X624409Y450984D02*
Y455905D01*
Y362008D02*
Y366929D01*
Y273031D02*
Y277953D01*
Y184055D02*
Y188976D01*
X457480Y450984D02*
Y455905D01*
Y362008D02*
Y366929D01*
Y273031D02*
Y277953D01*
Y184055D02*
Y188976D01*
D60*
X420079Y590158D02*
X481890D01*
X408661Y578740D02*
X420079Y590158D01*
X481890D02*
X503241D01*
X515748Y577651D01*
Y576772D02*
Y577651D01*
D61*
X473819Y561024D02*
X474016Y560827D01*
Y555905D02*
Y560827D01*
X465748Y552165D02*
X465945Y552362D01*
X470472D01*
X474016Y555905D01*
X544291Y569685D02*
X544488Y569882D01*
X536417Y569685D02*
X544291D01*
X536221Y569488D02*
X536417Y569685D01*
X495177Y568405D02*
X495669Y568898D01*
X474508Y568405D02*
X495177D01*
X474016Y567913D02*
X474508Y568405D01*
X473819Y561024D02*
X474016Y561221D01*
X317205Y451890D02*
X317520Y451575D01*
X276299Y451890D02*
X317205D01*
X275984Y452205D02*
X276299Y451890D01*
X317520Y462992D02*
X317520Y462992D01*
X317520Y451575D02*
Y462992D01*
X317520Y451575D02*
X317520Y451575D01*
X411368Y399951D02*
X414360D01*
X409055Y397638D02*
X411368Y399951D01*
X409055Y392126D02*
Y397638D01*
X405512Y388583D02*
X409055Y392126D01*
X366535Y388583D02*
X405512D01*
X411368Y133022D02*
X414360D01*
X409055Y130709D02*
X411368Y133022D01*
X409055Y125197D02*
Y130709D01*
X405512Y121653D02*
X409055Y125197D01*
X366535Y121653D02*
X405512D01*
X411368Y221998D02*
X414360D01*
X409055Y219685D02*
X411368Y221998D01*
X409055Y214173D02*
Y219685D01*
X405512Y210630D02*
X409055Y214173D01*
X366535Y210630D02*
X405512D01*
X366535Y299606D02*
X405512D01*
X409055Y303150D01*
Y308661D01*
X411368Y310974D01*
X414360D01*
X416378Y312992D01*
X517913Y539764D02*
X519980D01*
X522244Y542028D01*
Y558268D01*
X522342Y558366D01*
Y568799D01*
X522441Y568898D01*
X508858Y552165D02*
Y558268D01*
X505807Y549114D02*
X508858Y552165D01*
X505807Y542028D02*
Y549114D01*
X503543Y539764D02*
X505807Y542028D01*
X500197Y539764D02*
X503543D01*
X508858Y558268D02*
X508957Y558366D01*
Y568799D01*
X509055Y568898D01*
X574409Y505315D02*
X574488Y505394D01*
X583258D01*
X583337Y505472D01*
X115354Y508819D02*
Y517512D01*
X123622Y525780D01*
X583337Y535472D02*
X601014Y553150D01*
X622835Y536614D02*
X626769Y532680D01*
X633538D01*
X601014Y553150D02*
X618504D01*
X622835Y548819D01*
Y536614D02*
Y548819D01*
X614680Y545979D02*
X614764Y546063D01*
X614680Y535556D02*
Y545979D01*
X614597Y535472D02*
X614680Y535556D01*
X482874Y576378D02*
X501969D01*
X502362Y576772D01*
X482283Y575787D02*
X482874Y576378D01*
X474016Y575787D02*
X482283D01*
X684646Y532283D02*
X692606D01*
X675042Y522680D02*
X684646Y532283D01*
X633538Y522680D02*
X675042D01*
X536122Y576870D02*
X536221Y576968D01*
X515847Y576870D02*
X536122D01*
X515748Y576772D02*
X515847Y576870D01*
X481890Y590158D02*
X482283Y589764D01*
Y583268D02*
Y589764D01*
X138779Y459449D02*
X145079D01*
X138740D02*
Y469370D01*
X138701Y469409D02*
X138740Y469370D01*
X141142Y476968D02*
X148701Y469409D01*
X117717Y476968D02*
X141142D01*
X158858Y511417D02*
Y512205D01*
X162992Y516338D01*
Y536614D01*
X130974Y511811D02*
Y518428D01*
X123622Y525780D02*
X130974Y518428D01*
X130512Y511811D02*
X130974D01*
X131073Y508297D02*
Y511713D01*
X130974Y511811D02*
X131073Y511713D01*
Y508297D02*
X138701Y500669D01*
X144291Y506144D02*
Y511811D01*
Y506144D02*
X148701Y501735D01*
Y500669D02*
Y501735D01*
X144291Y511811D02*
X145079D01*
X145473Y511417D01*
X151378D01*
X123622Y525780D02*
Y536614D01*
D62*
X495669Y568898D02*
D03*
D63*
X509055D02*
D03*
X522441D02*
D03*
X502362Y576772D02*
D03*
X515748D02*
D03*
D64*
X288583Y462205D02*
D03*
X275984D02*
D03*
X200000Y508819D02*
D03*
X115354D02*
D03*
X633538Y532680D02*
D03*
Y522680D02*
D03*
X562992Y574567D02*
D03*
Y542598D02*
D03*
Y510630D02*
D03*
X183465Y502913D02*
D03*
Y492913D02*
D03*
Y482913D02*
D03*
X230315Y462598D02*
D03*
X240315D02*
D03*
X250315D02*
D03*
X210315D02*
D03*
X220315D02*
D03*
X352913Y548425D02*
D03*
X310394D02*
D03*
X593307Y312598D02*
D03*
X635113Y247483D02*
D03*
Y257483D02*
D03*
Y336459D02*
D03*
Y346459D02*
D03*
Y425435D02*
D03*
Y435435D02*
D03*
Y158506D02*
D03*
Y168506D02*
D03*
X593307Y224016D02*
D03*
Y401968D02*
D03*
X591732Y135039D02*
D03*
X426378Y312992D02*
D03*
Y224016D02*
D03*
X426378Y135039D02*
D03*
X468184Y336459D02*
D03*
Y346459D02*
D03*
Y247483D02*
D03*
Y257483D02*
D03*
X468184Y158506D02*
D03*
Y168506D02*
D03*
X468184Y425435D02*
D03*
Y435435D02*
D03*
X426378Y401968D02*
D03*
X314126Y207008D02*
D03*
Y217008D02*
D03*
Y227008D02*
D03*
Y237008D02*
D03*
Y267008D02*
D03*
Y277008D02*
D03*
Y287008D02*
D03*
Y247008D02*
D03*
Y257008D02*
D03*
Y121008D02*
D03*
Y131008D02*
D03*
Y161008D02*
D03*
Y171008D02*
D03*
Y181008D02*
D03*
Y141008D02*
D03*
Y151008D02*
D03*
X124126Y131008D02*
D03*
Y121008D02*
D03*
Y161008D02*
D03*
Y151008D02*
D03*
Y141008D02*
D03*
Y191008D02*
D03*
Y201008D02*
D03*
Y231008D02*
D03*
Y241008D02*
D03*
Y251008D02*
D03*
Y211008D02*
D03*
Y221008D02*
D03*
X351339Y474016D02*
D03*
X311968D02*
D03*
D65*
X288583Y452205D02*
D03*
X275984D02*
D03*
X200000Y498819D02*
D03*
X115354D02*
D03*
X633538Y542680D02*
D03*
X562992Y564567D02*
D03*
Y532598D02*
D03*
Y500630D02*
D03*
X183465Y472913D02*
D03*
X635113Y267483D02*
D03*
Y356459D02*
D03*
Y445435D02*
D03*
Y178506D02*
D03*
X468184Y356459D02*
D03*
Y267483D02*
D03*
X468184Y178506D02*
D03*
X468184Y445435D02*
D03*
X314126Y297008D02*
D03*
Y191008D02*
D03*
X124126Y171008D02*
D03*
Y261008D02*
D03*
D66*
X614597Y535472D02*
D03*
Y525472D02*
D03*
Y515472D02*
D03*
Y505472D02*
D03*
X583337D02*
D03*
Y515472D02*
D03*
Y525472D02*
D03*
X158701Y469409D02*
D03*
X148701D02*
D03*
X138701D02*
D03*
X128701D02*
D03*
Y500669D02*
D03*
X138701D02*
D03*
X148701D02*
D03*
X584912Y441240D02*
D03*
Y431240D02*
D03*
Y421240D02*
D03*
X616172D02*
D03*
Y431240D02*
D03*
Y441240D02*
D03*
Y451240D02*
D03*
X584912Y352264D02*
D03*
Y342264D02*
D03*
Y332264D02*
D03*
X616172D02*
D03*
Y342264D02*
D03*
Y352264D02*
D03*
Y362264D02*
D03*
X584912Y174311D02*
D03*
Y164311D02*
D03*
Y154311D02*
D03*
X616172D02*
D03*
Y164311D02*
D03*
Y174311D02*
D03*
Y184311D02*
D03*
X584912Y263287D02*
D03*
Y253287D02*
D03*
Y243287D02*
D03*
X616172D02*
D03*
Y253287D02*
D03*
Y263287D02*
D03*
Y273287D02*
D03*
X417982Y441240D02*
D03*
Y431240D02*
D03*
Y421240D02*
D03*
X449242D02*
D03*
Y431240D02*
D03*
Y441240D02*
D03*
Y451240D02*
D03*
X417982Y352264D02*
D03*
Y342264D02*
D03*
Y332264D02*
D03*
X449242D02*
D03*
Y342264D02*
D03*
Y352264D02*
D03*
Y362264D02*
D03*
X417982Y263287D02*
D03*
Y253287D02*
D03*
Y243287D02*
D03*
X449242D02*
D03*
Y253287D02*
D03*
Y263287D02*
D03*
Y273287D02*
D03*
X417982Y174311D02*
D03*
Y164311D02*
D03*
Y154311D02*
D03*
X449242D02*
D03*
Y164311D02*
D03*
Y174311D02*
D03*
Y184311D02*
D03*
D67*
X583337Y535472D02*
D03*
X584912Y451240D02*
D03*
Y362264D02*
D03*
Y184311D02*
D03*
Y273287D02*
D03*
X417982Y451240D02*
D03*
Y362264D02*
D03*
Y273287D02*
D03*
X417982Y184311D02*
D03*
D68*
X633465Y567323D02*
D03*
X623465D02*
D03*
X633465Y577323D02*
D03*
X595276Y567323D02*
D03*
X585276D02*
D03*
X595276Y577323D02*
D03*
X660236Y290945D02*
D03*
X650236D02*
D03*
X660236Y300945D02*
D03*
Y379921D02*
D03*
X650236D02*
D03*
X660236Y389921D02*
D03*
Y468898D02*
D03*
X650236D02*
D03*
X660236Y478898D02*
D03*
Y201969D02*
D03*
X650236D02*
D03*
X660236Y211968D02*
D03*
X493307Y201969D02*
D03*
X483307D02*
D03*
X493307Y211968D02*
D03*
X493307Y290945D02*
D03*
X483307D02*
D03*
X493307Y300945D02*
D03*
Y379921D02*
D03*
X483307D02*
D03*
X493307Y389921D02*
D03*
Y468898D02*
D03*
X483307D02*
D03*
X493307Y478898D02*
D03*
D69*
X633465Y557323D02*
D03*
X595276D02*
D03*
X660236Y280945D02*
D03*
Y369921D02*
D03*
Y458898D02*
D03*
Y191969D02*
D03*
X493307D02*
D03*
X493307Y280945D02*
D03*
Y369921D02*
D03*
Y458898D02*
D03*
D70*
X428346Y578740D02*
D03*
X357874D02*
D03*
X315354D02*
D03*
D71*
X408661D02*
D03*
X338189D02*
D03*
X295669D02*
D03*
D72*
X225591Y585827D02*
D03*
X245276D02*
D03*
X215748Y536614D02*
D03*
X255118D02*
D03*
X205906Y546457D02*
D03*
X235433D02*
D03*
X264961D02*
D03*
X133465Y585827D02*
D03*
X153150D02*
D03*
X123622Y536614D02*
D03*
X162992D02*
D03*
X113779Y546457D02*
D03*
X143307D02*
D03*
X172835D02*
D03*
D73*
X337598Y451575D02*
D03*
D74*
X327559D02*
D03*
X317520D02*
D03*
D75*
X260315Y462598D02*
D03*
X342913Y548425D02*
D03*
X300394D02*
D03*
X583307Y312598D02*
D03*
Y224016D02*
D03*
Y401968D02*
D03*
X581732Y135039D02*
D03*
X416378Y312992D02*
D03*
Y224016D02*
D03*
X416378Y135039D02*
D03*
X416378Y401968D02*
D03*
X341339Y474016D02*
D03*
X301969D02*
D03*
D76*
X158701Y500669D02*
D03*
D77*
X694181Y414701D02*
D03*
Y325725D02*
D03*
Y236748D02*
D03*
Y147772D02*
D03*
X527252Y414701D02*
D03*
Y325725D02*
D03*
Y236748D02*
D03*
X527252Y147772D02*
D03*
X694181Y512598D02*
D03*
D78*
Y424543D02*
D03*
Y434386D02*
D03*
Y335567D02*
D03*
Y345409D02*
D03*
Y246591D02*
D03*
Y256433D02*
D03*
Y157614D02*
D03*
Y167457D02*
D03*
X527252Y424543D02*
D03*
Y434386D02*
D03*
Y335567D02*
D03*
Y345410D02*
D03*
Y246591D02*
D03*
Y256433D02*
D03*
X527252Y157614D02*
D03*
Y167457D02*
D03*
X694181Y522441D02*
D03*
Y532283D02*
D03*
D79*
X666622Y407221D02*
D03*
Y441866D02*
D03*
Y318244D02*
D03*
Y352890D02*
D03*
Y229268D02*
D03*
Y263913D02*
D03*
Y140291D02*
D03*
Y174937D02*
D03*
X499693Y407221D02*
D03*
Y441866D02*
D03*
Y318244D02*
D03*
Y352890D02*
D03*
Y229268D02*
D03*
Y263913D02*
D03*
X499693Y140291D02*
D03*
Y174937D02*
D03*
X666622Y505118D02*
D03*
Y539764D02*
D03*
D80*
X394094Y437008D02*
D03*
X561024Y348031D02*
D03*
Y259055D02*
D03*
Y170079D02*
D03*
Y437008D02*
D03*
X394094Y348031D02*
D03*
Y259055D02*
D03*
X394094Y170079D02*
D03*
D81*
X394094Y425197D02*
D03*
Y413386D02*
D03*
X561024Y336221D02*
D03*
Y324410D02*
D03*
Y247244D02*
D03*
Y235433D02*
D03*
Y158268D02*
D03*
Y146457D02*
D03*
Y425197D02*
D03*
Y413386D02*
D03*
X394094Y336221D02*
D03*
Y324410D02*
D03*
Y247244D02*
D03*
Y235433D02*
D03*
X394094Y158268D02*
D03*
Y146457D02*
D03*
D82*
X394094Y448032D02*
D03*
Y402362D02*
D03*
X561024Y359055D02*
D03*
Y313386D02*
D03*
Y270079D02*
D03*
Y224410D02*
D03*
Y181102D02*
D03*
Y135433D02*
D03*
Y448032D02*
D03*
Y402362D02*
D03*
X394094Y359055D02*
D03*
Y313386D02*
D03*
Y270079D02*
D03*
Y224410D02*
D03*
X394094Y181102D02*
D03*
Y135433D02*
D03*
D83*
X377559Y585039D02*
D03*
X377953Y111024D02*
D03*
X91339Y585039D02*
D03*
X691339D02*
D03*
X296126Y111024D02*
D03*
X142126D02*
D03*
X691339D02*
D03*
D84*
X344126Y121008D02*
D03*
X334126D02*
D03*
X344126Y131008D02*
D03*
X334126D02*
D03*
X344126Y141008D02*
D03*
X334126D02*
D03*
X344126Y151008D02*
D03*
X334126D02*
D03*
X344126Y161008D02*
D03*
X334126D02*
D03*
X344126Y171008D02*
D03*
X334126D02*
D03*
X344126Y181008D02*
D03*
X334126D02*
D03*
X344126Y191008D02*
D03*
X334126D02*
D03*
X344126Y201008D02*
D03*
X334126D02*
D03*
X344126Y211008D02*
D03*
X334126D02*
D03*
X344126Y221008D02*
D03*
X334126D02*
D03*
X344126Y231008D02*
D03*
X334126D02*
D03*
X344126Y241008D02*
D03*
X334126D02*
D03*
X344126Y251008D02*
D03*
X334126D02*
D03*
X344126Y261008D02*
D03*
X334126D02*
D03*
X344126Y271008D02*
D03*
X334126D02*
D03*
X344126Y281008D02*
D03*
X334126D02*
D03*
X344126Y291008D02*
D03*
X334126D02*
D03*
X344126Y301008D02*
D03*
X334126D02*
D03*
X104126Y121008D02*
D03*
X94126D02*
D03*
X104126Y131008D02*
D03*
X94126D02*
D03*
X104126Y141008D02*
D03*
X94126D02*
D03*
X104126Y151008D02*
D03*
X94126D02*
D03*
X104126Y161008D02*
D03*
X94126D02*
D03*
X104126Y171008D02*
D03*
X94126D02*
D03*
X104126Y181008D02*
D03*
X94126D02*
D03*
X104126Y191008D02*
D03*
X94126D02*
D03*
X104126Y201008D02*
D03*
X94126D02*
D03*
X104126Y211008D02*
D03*
X94126D02*
D03*
X104126Y221008D02*
D03*
X94126D02*
D03*
X104126Y231008D02*
D03*
X94126D02*
D03*
X104126Y241008D02*
D03*
X94126D02*
D03*
X104126Y251008D02*
D03*
X94126D02*
D03*
X104126Y261008D02*
D03*
X94126D02*
D03*
X104126Y271008D02*
D03*
X94126D02*
D03*
X104126Y281008D02*
D03*
X94126D02*
D03*
X104126Y291008D02*
D03*
X94126D02*
D03*
X104126Y301008D02*
D03*
X94126D02*
D03*
D85*
X474016Y555905D02*
D03*
X410236Y411417D02*
D03*
X451279Y466437D02*
D03*
X362205Y297244D02*
D03*
X451279Y377461D02*
D03*
Y288484D02*
D03*
X451279Y199508D02*
D03*
X618209Y377461D02*
D03*
Y199508D02*
D03*
X618110Y288583D02*
D03*
Y466535D02*
D03*
X548032Y393307D02*
D03*
X542520D02*
D03*
X564567D02*
D03*
X559055D02*
D03*
X553543D02*
D03*
X581102D02*
D03*
X570079D02*
D03*
X597638D02*
D03*
X592126D02*
D03*
X586614D02*
D03*
X614173D02*
D03*
X630709D02*
D03*
X619685D02*
D03*
X647244Y396457D02*
D03*
X641732D02*
D03*
X636221Y393307D02*
D03*
X663779Y396457D02*
D03*
X658268D02*
D03*
X652756D02*
D03*
X680315D02*
D03*
X674803D02*
D03*
X669291D02*
D03*
X696850D02*
D03*
X691339D02*
D03*
X685827D02*
D03*
X608661Y393307D02*
D03*
X548032Y304331D02*
D03*
X542520D02*
D03*
X564567D02*
D03*
X559055D02*
D03*
X553543D02*
D03*
X581102D02*
D03*
X570079D02*
D03*
X597638D02*
D03*
X592126D02*
D03*
X586614D02*
D03*
X614173D02*
D03*
X630709D02*
D03*
X619685D02*
D03*
X647244Y307480D02*
D03*
X641732D02*
D03*
X636221Y304331D02*
D03*
X663779Y307480D02*
D03*
X658268D02*
D03*
X652756D02*
D03*
X680315D02*
D03*
X674803D02*
D03*
X669291D02*
D03*
X696850D02*
D03*
X691339D02*
D03*
X685827D02*
D03*
X608661Y304331D02*
D03*
Y215354D02*
D03*
X535433Y214567D02*
D03*
X685827Y218504D02*
D03*
X691339D02*
D03*
X696850D02*
D03*
X669291D02*
D03*
X674803D02*
D03*
X680315D02*
D03*
X652756D02*
D03*
X658268D02*
D03*
X663779D02*
D03*
X636221Y215354D02*
D03*
X641732Y218504D02*
D03*
X647244D02*
D03*
X619685Y215354D02*
D03*
X630709D02*
D03*
X614173D02*
D03*
X586614D02*
D03*
X592126D02*
D03*
X597638D02*
D03*
X570079D02*
D03*
X581102D02*
D03*
X553543D02*
D03*
X559055D02*
D03*
X564567D02*
D03*
X542520D02*
D03*
X548032D02*
D03*
X531496D02*
D03*
X518898Y218504D02*
D03*
X524409D02*
D03*
X529921D02*
D03*
X502362D02*
D03*
X507874D02*
D03*
X513386D02*
D03*
X485827D02*
D03*
X491339D02*
D03*
X496850D02*
D03*
X469291Y215354D02*
D03*
X474803Y218504D02*
D03*
X480315D02*
D03*
X452756Y215354D02*
D03*
X463779D02*
D03*
X441732D02*
D03*
X447244D02*
D03*
X419685D02*
D03*
X425197D02*
D03*
X430709D02*
D03*
X403150D02*
D03*
X414173D02*
D03*
X386614D02*
D03*
X392126D02*
D03*
X397638D02*
D03*
X370079D02*
D03*
X375591D02*
D03*
X381102D02*
D03*
X364567D02*
D03*
X518898Y307480D02*
D03*
X524409D02*
D03*
X529921D02*
D03*
X502362D02*
D03*
X507874D02*
D03*
X513386D02*
D03*
X485827D02*
D03*
X491339D02*
D03*
X496850D02*
D03*
X469291Y304331D02*
D03*
X474803Y307480D02*
D03*
X480315D02*
D03*
X452756Y304331D02*
D03*
X463779D02*
D03*
X441732D02*
D03*
X447244D02*
D03*
X419685D02*
D03*
X425197D02*
D03*
X430709D02*
D03*
X403150D02*
D03*
X414173D02*
D03*
X386614D02*
D03*
X392126D02*
D03*
X397638D02*
D03*
X370079D02*
D03*
X375591D02*
D03*
X381102D02*
D03*
X364567D02*
D03*
X695276Y487008D02*
D03*
X689764D02*
D03*
X684252D02*
D03*
X678740D02*
D03*
X673228D02*
D03*
X667717D02*
D03*
X662205D02*
D03*
X656693D02*
D03*
X651181D02*
D03*
X645669D02*
D03*
X640158D02*
D03*
X634646D02*
D03*
X629134D02*
D03*
X623622D02*
D03*
X618110D02*
D03*
X601575D02*
D03*
X596063D02*
D03*
X590551D02*
D03*
X585039D02*
D03*
X579528D02*
D03*
X574016D02*
D03*
X568504D02*
D03*
X562992D02*
D03*
X557480D02*
D03*
X551968D02*
D03*
X546457D02*
D03*
X540945D02*
D03*
X162992Y516535D02*
D03*
X255118Y514173D02*
D03*
X236614Y487795D02*
D03*
X700787Y490157D02*
D03*
Y495669D02*
D03*
Y501181D02*
D03*
Y506693D02*
D03*
Y512205D02*
D03*
Y517717D02*
D03*
Y523228D02*
D03*
Y545275D02*
D03*
Y550787D02*
D03*
Y556299D02*
D03*
Y561811D02*
D03*
Y567323D02*
D03*
Y572835D02*
D03*
Y578346D02*
D03*
Y589370D02*
D03*
Y583858D02*
D03*
Y264173D02*
D03*
Y269685D02*
D03*
Y275197D02*
D03*
Y131890D02*
D03*
Y137402D02*
D03*
Y142913D02*
D03*
Y148425D02*
D03*
Y153937D02*
D03*
Y181496D02*
D03*
Y187008D02*
D03*
Y192520D02*
D03*
Y198031D02*
D03*
Y203543D02*
D03*
Y209055D02*
D03*
Y214567D02*
D03*
Y220079D02*
D03*
Y313779D02*
D03*
Y308268D02*
D03*
Y302756D02*
D03*
Y297244D02*
D03*
Y291732D02*
D03*
Y286220D02*
D03*
Y280709D02*
D03*
Y247638D02*
D03*
Y242126D02*
D03*
Y236614D02*
D03*
Y231102D02*
D03*
Y225590D02*
D03*
Y319291D02*
D03*
Y324803D02*
D03*
Y330315D02*
D03*
Y335827D02*
D03*
Y357874D02*
D03*
Y363386D02*
D03*
Y368898D02*
D03*
Y374409D02*
D03*
Y379921D02*
D03*
Y385433D02*
D03*
Y390945D02*
D03*
Y396457D02*
D03*
Y401968D02*
D03*
Y407480D02*
D03*
Y412992D02*
D03*
Y418504D02*
D03*
Y424016D02*
D03*
Y446063D02*
D03*
Y451575D02*
D03*
Y457087D02*
D03*
Y462598D02*
D03*
Y468110D02*
D03*
Y473622D02*
D03*
Y479134D02*
D03*
Y484646D02*
D03*
Y126378D02*
D03*
X695276D02*
D03*
X689764D02*
D03*
X684252D02*
D03*
X678740D02*
D03*
X673228D02*
D03*
X667717D02*
D03*
X662205D02*
D03*
X656693D02*
D03*
X651181D02*
D03*
X645669D02*
D03*
X640158D02*
D03*
X634646D02*
D03*
X629134D02*
D03*
X623622D02*
D03*
X618110D02*
D03*
X612598D02*
D03*
X607087D02*
D03*
X364567Y393307D02*
D03*
X381102D02*
D03*
X375591D02*
D03*
X370079D02*
D03*
X397638D02*
D03*
X392126D02*
D03*
X386614D02*
D03*
X414173D02*
D03*
X403150D02*
D03*
X430709D02*
D03*
X425197D02*
D03*
X419685D02*
D03*
X447244D02*
D03*
X441732D02*
D03*
X463779D02*
D03*
X452756D02*
D03*
X480315Y396457D02*
D03*
X474803D02*
D03*
X469291Y393307D02*
D03*
X496850Y396457D02*
D03*
X491339D02*
D03*
X485827D02*
D03*
X513386D02*
D03*
X507874D02*
D03*
X502362D02*
D03*
X529921D02*
D03*
X524409D02*
D03*
X518898D02*
D03*
X364567Y459449D02*
D03*
X362205Y457087D02*
D03*
X370079Y464961D02*
D03*
X375591Y470472D02*
D03*
X381102Y475984D02*
D03*
X386614Y481496D02*
D03*
X397638Y487008D02*
D03*
X392126D02*
D03*
X463779D02*
D03*
X458268D02*
D03*
X452756D02*
D03*
X447244D02*
D03*
X441732D02*
D03*
X436221D02*
D03*
X430709D02*
D03*
X425197D02*
D03*
X419685D02*
D03*
X414173D02*
D03*
X408661D02*
D03*
X403150D02*
D03*
X529921D02*
D03*
X524409D02*
D03*
X518898D02*
D03*
X513386D02*
D03*
X507874D02*
D03*
X502362D02*
D03*
X496850D02*
D03*
X491339D02*
D03*
X485827D02*
D03*
X480315D02*
D03*
X474803D02*
D03*
X362205Y396457D02*
D03*
Y401968D02*
D03*
Y407480D02*
D03*
Y412992D02*
D03*
Y418504D02*
D03*
Y424016D02*
D03*
Y429528D02*
D03*
Y435039D02*
D03*
Y440551D02*
D03*
Y446063D02*
D03*
Y451575D02*
D03*
Y330315D02*
D03*
Y335827D02*
D03*
Y341338D02*
D03*
Y346850D02*
D03*
Y352362D02*
D03*
Y357874D02*
D03*
Y363386D02*
D03*
Y368898D02*
D03*
Y374409D02*
D03*
Y379921D02*
D03*
Y385433D02*
D03*
Y390945D02*
D03*
Y264173D02*
D03*
Y269685D02*
D03*
Y275197D02*
D03*
Y280709D02*
D03*
Y286220D02*
D03*
Y291732D02*
D03*
Y302756D02*
D03*
Y308268D02*
D03*
Y313779D02*
D03*
Y319291D02*
D03*
Y324803D02*
D03*
Y198031D02*
D03*
Y203543D02*
D03*
Y209055D02*
D03*
Y214567D02*
D03*
Y220079D02*
D03*
Y225590D02*
D03*
Y231102D02*
D03*
Y236614D02*
D03*
Y242126D02*
D03*
Y247638D02*
D03*
Y253150D02*
D03*
Y258661D02*
D03*
Y131890D02*
D03*
Y137402D02*
D03*
Y142913D02*
D03*
Y148425D02*
D03*
Y153937D02*
D03*
Y159449D02*
D03*
Y164961D02*
D03*
Y170472D02*
D03*
Y175984D02*
D03*
Y181496D02*
D03*
Y187008D02*
D03*
Y192520D02*
D03*
X397638Y126378D02*
D03*
X392126D02*
D03*
X386614D02*
D03*
X381102D02*
D03*
X375591D02*
D03*
X370079D02*
D03*
X364567D02*
D03*
X463779D02*
D03*
X458268D02*
D03*
X452756D02*
D03*
X447244D02*
D03*
X441732D02*
D03*
X436221D02*
D03*
X430709D02*
D03*
X425197D02*
D03*
X419685D02*
D03*
X414173D02*
D03*
X408661D02*
D03*
X403150D02*
D03*
X540945D02*
D03*
X546457D02*
D03*
X551968D02*
D03*
X557480D02*
D03*
X562992D02*
D03*
X568504D02*
D03*
X574016D02*
D03*
X579528D02*
D03*
X585039D02*
D03*
X590551D02*
D03*
X596063D02*
D03*
X601575D02*
D03*
X529921D02*
D03*
X524409D02*
D03*
X518898D02*
D03*
X513386D02*
D03*
X507874D02*
D03*
X502362D02*
D03*
X496850D02*
D03*
X491339D02*
D03*
X485827D02*
D03*
X480315D02*
D03*
X474803D02*
D03*
X469291D02*
D03*
X410236Y322441D02*
D03*
Y233465D02*
D03*
X410236Y144488D02*
D03*
X577165D02*
D03*
Y233465D02*
D03*
Y322441D02*
D03*
X535433Y484646D02*
D03*
Y479134D02*
D03*
Y473622D02*
D03*
Y468110D02*
D03*
Y462598D02*
D03*
Y457087D02*
D03*
Y451575D02*
D03*
Y446063D02*
D03*
Y440551D02*
D03*
Y435039D02*
D03*
Y429528D02*
D03*
Y424016D02*
D03*
Y418504D02*
D03*
Y412992D02*
D03*
Y407480D02*
D03*
Y401968D02*
D03*
Y396457D02*
D03*
Y390945D02*
D03*
Y385433D02*
D03*
Y379921D02*
D03*
Y374409D02*
D03*
Y368898D02*
D03*
Y363386D02*
D03*
Y357874D02*
D03*
Y352362D02*
D03*
Y346850D02*
D03*
Y341338D02*
D03*
Y335827D02*
D03*
Y330315D02*
D03*
Y324803D02*
D03*
Y319291D02*
D03*
Y225590D02*
D03*
Y231102D02*
D03*
Y236614D02*
D03*
Y242126D02*
D03*
Y247638D02*
D03*
Y253150D02*
D03*
Y258661D02*
D03*
Y264173D02*
D03*
Y269685D02*
D03*
Y275197D02*
D03*
Y280709D02*
D03*
Y286220D02*
D03*
Y291732D02*
D03*
Y297244D02*
D03*
Y302756D02*
D03*
Y308268D02*
D03*
Y313779D02*
D03*
Y220079D02*
D03*
Y209055D02*
D03*
Y203543D02*
D03*
Y198031D02*
D03*
Y192520D02*
D03*
Y187008D02*
D03*
Y181496D02*
D03*
Y175984D02*
D03*
Y170472D02*
D03*
Y164961D02*
D03*
Y159449D02*
D03*
Y153937D02*
D03*
Y148425D02*
D03*
Y142913D02*
D03*
Y137402D02*
D03*
Y131890D02*
D03*
Y126378D02*
D03*
X577165Y411417D02*
D03*
X624409Y455905D02*
D03*
Y188976D02*
D03*
Y277953D02*
D03*
Y366929D02*
D03*
X457480Y455905D02*
D03*
Y366929D02*
D03*
Y277953D02*
D03*
Y188976D02*
D03*
M02*
