M48
;Layer_Color=9474304
;FILE_FORMAT=2:5
INCH,TZ
;TYPE=PLATED
T01F00S00C0.01378
T02F00S00C0.02480
T03F00S00C0.03937
T04F00S00C0.03976
T05F00S00C0.04016
T06F00S00C0.04528
T07F00S00C0.04724
T08F00S00C0.05197
T09F00S00C0.05315
T10F00S00C0.05512
T11F00S00C0.06260
T12F00S00C0.11181
T13F00S00C0.13386
%
T01
X84646Y108268
X90551
X96457
X102362
X108268
X114173
X120079
X125984
X131890
X128937Y114173
X123031
X117126
X111220
X105315
X99409
X93504
X87598
X84646Y120079
X87598Y125984
X93504
X84646Y131890
X87598Y137795
X84646Y143701
X87598Y149606
X84646Y155512
X90551
X108268
X114173
X120079
X137795
X143701
X149606
X155512
X152559Y149606
X146653
X140748
X134843
X137795Y143701
X143701
X149606
X155512
X152559Y137795
X146653
X140748
X146063Y130709
X149606Y131890
X155512
Y120079
X149606
X143701
X137402Y128347
X133858Y125984
X152559Y114173
X155512Y108268
X161417
X167323
X173228
X179134
X185039
X190945
X196850
X202756
X208661
X214567
X220472
X226378
X232283
X238189
X244094
X250000
X255905
X261811
X267716
X273622
X279527
X285433
X282480Y114173
X276575
X270669
X264764
X258858
X252953
X247047
X241142
X235236
X229331
X223425
X217520
X211614
X205709
X199803
X193898
X187992
X182087
X176181
X170275
X164370
X158465
X161417Y120079
X167323
X173228
X179134
X185039
X190945
X196850
X202756
X208661
X214567
X220472
X226378
X232283
X238189
X244094
X250000
X255905
X261811
X267716
X273622
X279527
X285433
X291338
X279527Y131890
X273622
X267716
X261811
X255905
X250000
X244094
X238189
X232283
X226378
X220472
X214567
X208661
X202756
X196850
X190945
X185039
X179134
X173228
X167323
X161417
X164370Y137795
X170275
X176181
X182087
X187992
X193898
X199803
X205709
X211614
X217520
X223425
X229331
X235236
X241142
X247047
X252953
X258858
X264764
X270669
X276575
X267716Y143701
X261811
X255905
X250000
X244094
X238189
X232283
X226378
X220472
X214567
X208661
X202756
X196850
X190945
X185039
X179134
X173228
X167323
X161417
X164370Y149606
X170275
X176181
X182087
X187992
X193898
X199803
X205709
X211614
X217520
X223425
X229331
X235236
X241142
X247047
X252953
X258858
X264764
X255905Y155512
X250000
X244094
X238189
X232283
X226378
X220472
X214567
X208661
X202756
X196850
X190945
X185039
X179134
X173228
X167323
X161417
X158465Y149606
Y137795
X306102
X303150Y143701
X309055
X306102Y149606
X300197
X294291
X291338Y155512
X297244
X303150
X309055
X326771
X329724Y137795
X323819
Y125984
X329724
Y114173
X335630
X346850Y114426
X350394Y115839
X353937Y117020
X357480Y118110
X361024Y119291
X357087Y122835
X353346Y125984
X347441
X350394Y131890
X362205Y131890
Y137402
Y142913
Y148425
Y153937
X365187Y126998
X370079Y126630
X375591
X381102
X386614
X392126
X397638
X403150
X414173Y126378
X419685
X425197
X430709
X436221
X441732
X447244
X452756
X458268
X463779
X463189Y137205
X462778Y105905
X438368
X413565Y105539
X389673Y104252
X410236Y144488
X429921
X317913Y125984
Y114173
X323819
X469291Y126378
X474803
X480315
X485827
X491339
X496850
X502362
X507874
X513386
X518898
X524409
X529921
X535433
X540945
X546457
X551968
X557480
X562992
X568504
X579528
X585039
X590551
X596063
X601575
X607087
X612598
X618110
X623622
X616142Y120079
X610236
X604330
Y108268
X610809Y105905
X586006
X580709Y108268
X561597Y105905
X557086Y108268
X560039Y114173
X536794Y105905
X533464Y108268
X512384Y105905
X509842Y108268
X503937
X487581Y105905
X480315Y108268
X535433Y131890
Y137402
Y142913
Y148425
Y153937
X577165Y144488
X596850
X630118Y137205
X629134Y126378
X634646
X640158
X645669
X651181
X656693
X662205
X667717
X673228
X678740
X684252
X689764
X695276
X700787
Y131890
Y137402
Y142913
Y148425
Y153937
X698819Y120079
X692913
X687008
X681102
X675197
X669291
X663386
X657480
X651575
X645669
X639764
X633858
X627953
Y108268
X635219Y105905
X651575Y108268
X657480
X660022Y105905
X660433Y114173
X654527
X678149
X681102Y108268
X700787Y159449
Y164961
Y170472
Y175984
Y181496
Y187008
Y192520
Y198031
Y203543
Y209055
Y214567
Y220079
Y225590
Y231102
Y236614
Y242126
Y247638
Y253150
Y258661
Y264173
Y269685
Y275197
Y280709
Y286220
Y291732
Y297244
Y302756
Y308268
X696850Y307480
X691339
X685827
X680315
X674803
X669291
X663779
X658268
X652756
X647244
X641732
X636221Y304331
X630709
X630118Y226181
X630709Y215354
X636221
X641732Y218504
X647244
X652756
X658268
X663779
X669291
X674803
X680315
X685827
X691339
X696850
X619685Y215354
X614173
X608661
X597638
X592126
X586614
X581102
X570079
X564567
X559055
X553543
X548032
X542520
X542520Y208661
X535433Y209949
Y214567
Y220079
Y225590
Y231102
Y236614
Y242126
Y247638
Y253150
Y258661
Y264173
Y269685
Y275197
Y280709
Y286220
Y291732
Y302756
Y308268
X529921Y307480
X524409
X518898
X513386
X507874
X502362
X496850
X491339
X485827
X480315
X474803
X469291Y304331
X542520Y304331
X548032
X553543
X559055
X564567
X570079
X581102
X586614
X592126
X597638
X608661
X614173
X619685
X618110Y288583
X611614Y288779
X624409Y277953
X596850Y233465
X577165
X529921Y218504
X524409
X518898
X513386
X507874
X502362
X496850
X491339
X485827
X480315
X474803
X469291Y215354
X535433Y203543
Y198031
Y192520
Y187008
Y181496
Y175984
Y170472
Y164961
Y159449
X611614Y199803
X618209Y199508
X624409Y188976
X542520Y297244
X463779
Y304331
X452756
X447244
X441732
X430709
X425197
X419685
X414173
X403150
X397638
X392126
X386614
X381102
X375591
X370079
X364567
X362205Y308268
X353346Y303150
X350394Y297244
X353346Y291338
X356299Y285433
X362205Y286220
Y291732
Y280709
Y275197
Y269685
Y264173
Y258661
Y253150
Y247638
Y242126
Y236614
Y231102
Y225590
Y220079
X364567Y215354
X370079
X375591
X381102
X386614
X392126
X397638
X403150
X414173
X419685
X425197
X430709
X441732
X447244
X452756
X463779
Y208661
X463189Y226181
X451279Y199508
X444685Y199803
X457480Y188976
X429921Y233465
X410236
X353346Y232283
Y244094
Y255905
Y267716
X341535Y255905
X323228Y257087
X326771Y250000
X338583Y238189
Y226378
X349213Y218898
X353543Y209055
X356693Y205512
X362205Y203543
Y198031
X359055Y196063
X352756
X346350
X329724Y196850
X323819
X326771Y202756
X323228Y207087
X323819Y185039
X329724
X326771Y167323
X362205Y164961
Y159449
Y170472
Y175984
Y181496
Y187008
Y192520
X338583Y297244
X326771Y309055
X314961
X444685Y288779
X451279Y288484
X457480Y277953
X309055Y273622
X303150
X297244
X291338
X285433
X279527
X273622
X276575Y279527
X282480
X288386
X294291
X300197
X306102
X303150Y285433
X309055
X306102Y291338
X300197
X294291
X288386
X282480
X276575
X270669
X273622Y297244
X279527
X285433
X291338
X297244
X303150
X306102Y303150
X312008
X309055Y309055
X303150
X297244
X291338
X285433
X279527
X273622
X276575Y303150
X282480
X288386
X294291
X300197
X297244Y285433
X291338
X285433
X279527
X273622
X270669Y279527
Y267716
X276575
X282480
X288386
X294291
X300197
X306102
X303150Y261811
X309055
X306102Y255905
X300197
X294291
X288386
X282480
X276575
X270669
X273622Y261811
X279527
X285433
X291338
X297244
Y250000
X303150
X309055
X306102Y244094
X300197
X294291
X288386
X282480
X276575
X270669
X273622Y250000
X279527
X285433
X291338
Y238189
X297244
X303150
X306102Y232283
X300197
X294291
X288386
X282480
X276575
X270669
X273622Y238189
X279527
X285433
Y226378
X291338
X297244
X303150
X306102Y220472
X300197
X294291
X288386
X282480
X276575
X270669
X273622Y226378
X279527
Y214567
X285433
X291338
X297244
X303150
X309055
X306102Y208661
X300197
X294291
X288386
X282480
X276575
X270669
X273622Y214567
Y202756
X279527
X285433
X291338
X297244
X303150
X309055
X312008Y196850
X306102
X300197
X294291
X288386
X282480
X276575
X270669
Y185039
X264764
X258858
X255905Y190945
X261811
X258858Y196850
X252953
X250000Y202756
X255905
X261811
X258858Y208661
X252953
X250000Y214567
X255905
X261811
X258858Y220472
X252953
X250000Y226378
X255905
X261811
X258858Y232283
X252953
X250000Y238189
X255905
X261811
X258858Y244094
X252953
X250000Y250000
X255905
X261811
X258858Y255905
X252953
X250000Y261811
X255905
X261811
X258858Y267716
X252953
X250000Y273622
X255905
X261811
X258858Y279527
X252953
X250000Y285433
X255905
X261811
X258858Y291338
X252953
X250000Y297244
X255905
X261811
X258858Y303150
X252953
X250000Y309055
X255905
X261811
X270669Y303150
X235236
X229331
X223425
X217520
X211614
X205709
X199803
X193898
X187992
X182087
X176181
X170275
X164370
X158465
X161417Y309055
X167323
X173228
X179134
X185039
X190945
X196850
X202756
X208661
X214567
X220472
X226378
X232283
X238189
Y297244
X232283
X226378
X220472
X214567
X208661
X202756
X196850
X190945
X185039
X179134
X173228
X167323
X161417
X164370Y291338
X170275
X176181
X182087
X187992
X193898
X199803
X205709
X211614
X217520
X223425
X229331
X235236
X232283Y285433
X238189
X235236Y279527
X229331
X223425
X217520
X211614
X205709
X199803
X193898
X187992
X182087
X176181
X170275
X164370
X158465
X161417Y285433
X167323
X173228
X179134
X185039
X190945
X196850
X202756
X208661
X214567
X220472
X226378
Y273622
X232283
X238189
X235236Y267716
X229331
X223425
X217520
X211614
X205709
X199803
X193898
X187992
X182087
X176181
X170275
X164370
X158465
X161417Y273622
X167323
X173228
X179134
X185039
X190945
X196850
X202756
X208661
X214567
X220472
Y261811
X226378
X232283
X238189
X235236Y255905
X229331
X223425
X217520
X211614
X205709
X199803
X193898
X187992
X182087
X176181
X170275
X167323Y261811
X173228
X179134
X185039
X190945
X196850
X202756
X208661
X214567
Y250000
X220472
X226378
X232283
X238189
X235236Y244094
X229331
X223425
X217520
X211614
X205709
X199803
X193898
X187992
X182087
X179134Y250000
X185039
X190945
X196850
X202756
X208661
Y238189
X214567
X220472
X226378
X232283
X238189
X235236Y232283
X229331
X223425
X217520
X211614
X205709
X199803
X193898
X190945Y238189
X196850
X202756
Y226378
X208661
X214567
X220472
X226378
X232283
X238189
X235236Y220472
X229331
X223425
X217520
X211614
X205906Y220866
X200633Y215200
X199803Y208661
X205709
X202756Y202756
X208661
X211614Y196850
X217520
X214567Y190945
X220472
Y179134
X226378
X232283
X235236Y173228
X241142
X238976Y176378
X229331Y173228
X223425
X217520
X211614
X205709
X199803
X193898
X187992
X182087
X176181
X170275
X164370
X158465
X161417Y179134
X167323
X173228
X179134
X185039
X190945
X196850
X202756
X208661
X214567
X208661Y190945
X202756
X196850
X190945
X185039
X179134
X173228
X167323
X161417
X164370Y196850
X170275
X176181
X182087
X187992
X193898
X199803
X205709
X196850Y202756
X190945
X185039
X179134
X173228
X167323
X161417
X164370Y208661
X170275
X176181
X182087
X187992
X193898
Y220472
X187992
X182087
X176181
X170275
X164370
X158465
X161417Y226378
X167323
X173228
X179134
X185039
X182087Y232283
X176181
X170275
X164370
X158465
X161417Y238189
X167323
X173228
X170275Y244094
X164370
X158465
X161417Y250000
X158465Y255905
Y291338
Y208661
Y196850
Y161417
X164370
X170275
X176181
X182087
X187992
X193898
X199803
X205709
X211614
X217520
X223425
X229331
X235236
X241142
X247047
X252953
X248819Y166535
X256693Y173622
X270669Y173228
X276575
X282480
X288386
X294291
X300197
X306102
X303150Y167323
X309055
X306102Y161417
X300197
X294291
X288386
X282480
X279527Y167323
X285433
X291338
X297244
X300197Y185039
X306102
X303150Y190945
X297244
X291338
X285433
X279527
X282480Y185039
X288386
X294291
X273622Y179134
X267716
X246457Y183071
X237008Y192126
X235236Y196850
X229331
X226378Y202756
X232283
X238189
X235236Y208661
X229331
X223425
X217520
X214567Y214567
X220472
X226378
X232283
X238189
X229528Y185433
X155512Y190945
X149606
X143701
X146653Y196850
X152559
X149606Y202756
X155512
X152559Y208661
X146653
X140748
X143701Y202756
X140748Y196850
X128937
X131890Y202756
Y190945
Y179134
X125984
X120079
X114173
X117126Y196850
X111220
X114173Y202756
X117126Y208661
X111220
X108268Y226378
X114173
X120079
X131890
X138976Y230709
X143701Y226378
X149606
X155512
X152559Y232283
X146653
Y244094
X140748
X143701Y250000
X149606
X155512
Y238189
X152559Y220472
X146653
X140748
X131890Y238189
X128937Y244094
X131890Y250000
X128937Y255905
X131890Y261811
X128937Y267716
X123031
X117126
X111220
X114173Y273622
X120079
X125984
X131890
X128937Y279527
X120079Y285433
X114173
X108268
X111220Y291338
X117126
X123031
X125591Y298335
X123031Y303150
X117126
X111220
X108268Y309055
X114173
X120079
X131890
X143701
X149606
X155512
Y297244
X149606
X143701
X146653Y303150
X140748
Y291338
X146653
X143701Y285433
X149606
X155512
Y273622
X146653Y279527
Y267716
X140748
X143701Y261811
X149606
X146653Y255905
X140748
X117126
X111220
X105315
X99409
X93504
X87598
X84646Y261811
X87598Y267716
X84646Y273622
X87598Y279527
X84646Y285433
X90551
X96457
X99409Y279527
Y267716
X114173Y261811
X117126Y244094
X111220
X99409
X87598
X84646Y250000
Y238189
X87598Y232283
X84646Y226378
X90551
X96457
X102362
X87598Y220472
X84646Y214567
X87598Y208661
X84646Y202756
X87598Y196850
X84646Y190945
X87598Y185039
X84646Y179134
X87598Y173228
X84646Y167323
X90551
X87598Y161417
X99409Y173228
Y196850
X143701Y179134
X149606
X155512
X152559Y173228
X146653
X140748
Y161417
X146653
X152559
X131890Y297244
X99409Y303150
X96457Y309055
X102362
X90551
X84646
X87598Y303150
X84646Y297244
X90551
X87598Y291338
Y314961
X93504
X99409
X105315
X111220
X117126
X123031
X120079Y320866
X114173
X108268
X102362
X96457
X90551
X84646
X87598Y326771
X93504
X99409
X105315
X111220
X117126
X123031
X120079Y332677
X114173
X108268
X102362
X96457
X90551
X84646
X87598Y338583
X93504
X99409
X105315
X111220
X117126
X123031
X120079Y344488
X114173
X108268
X102362
X96457
X90551
X84646
X87598Y350394
X93504
X99409
X105315
X111220
X117126
X123031
X120079Y356299
X114173
X108268
X102362
X96457
X90551
X84646
X87598Y362205
X93504
X99409
X105315
X111220
X117126
X123031
X120079Y368110
X114173
X108268
X102362
X96457
X90551
X84646
X87598Y374016
X93504
X99409
X105315
X111220
X117126
X123031
X120079Y379921
X114173
X108268
X102362
X96457
X90551
X84646
X87598Y385827
X93504
X99409
X105315
X111220
X117126
X123031
X120079Y391732
X114173
X108268
X102362
X96457
X90551
X84646
X87598Y397638
X93504
X99409
X105315
X111220
X117126
X123031
X120079Y403543
X114173
X108268
X102362
X96457
X90551
X84646
X87598Y409449
X93504
X99409
X105315
X111220
X117126
X123031
X120079Y415354
X114173
X108268
X102362
X96457
X90551
X84646
X87598Y421260
X93504
X99409
X105315
X111220
X117126
X123031
X120079Y427165
X114173
X108268
X102362
X96457
X90551
X84646
X87598Y433071
X93504
X99409
X105315
X111220
X117126
X123031
X120079Y438976
X114173
X108268
X102362
X96457
X90551
X84646
X87598Y444882
X93504
X99409
X105315
X111220
X117126
X123031
X128347Y444488
X125984Y450787
X120079
X114173
X108268
X102362
X96457
X90551
X84646
X87598Y456693
X93504
X99409
X105315
X111220
X117126
X123031
X120079Y462598
X125984
X114173
X108268
X102362
X96457
X90551
X84646
X87598Y468504
X93504
X99409
X105315
X111220
X131890Y438976
X143701
X149606
X155512
Y427165
X149606
X143701
X146653Y433071
X140748
Y444882
X146653
Y421260
X140748
X143701Y415354
X149606
X155512
Y403543
X149606
X143701
X146653Y409449
X140748
Y397638
X146653
X143701Y391732
X149606
X155512
Y379921
X149606
X143701
X146653Y385827
X140748
Y374016
X146653
X143701Y368110
X149606
X155512
Y356299
X149606
X143701
X146653Y362205
X140748
Y350394
X146653
X143701Y344488
X149606
X155512
Y332677
X149606
X143701
X146653Y338583
X140748
Y326771
X146653
X143701Y320866
X149606
X155512
X146653Y314961
X140748
X131890Y320866
Y332677
Y344488
Y356299
Y368110
Y379921
Y391732
Y403543
Y415354
Y427165
X161417
X167323
X173228
X179134
X185039
X190945
X196850
X202756
X208661
X214567
X220472
X226378
X232283
X235236Y433071
X229331
X223425
X217520
X211614
X205709
X199803
X193898
X187992
X182087
X176181
X170275
X164370
X158465
X161417Y438976
X167323
X173228
X179134
X185039
X190945
X196850
X202756
X208661
X214567
X220472
X226378
X232283
X235236Y444882
X229331
X223425
X217520
X211614
X205709
X199803
X193898
X187992
X182087
X176181
X170275
X164370
X158465
X166142Y452362
Y459449
X161417Y462598
X179134
X185039
X190945
X196850
X202756
X205709Y468504
X211614
X217520
X223425
X229331
X235236
X241142
X247047
X252953
X258858
Y456693
Y444882
X261811Y438976
X258858Y433071
X255905Y427165
X261811
X258858Y421260
X252953
X250000Y415354
X255905
X261811
X258858Y409449
X252953
X250000Y403543
X255905
X261811
X258858Y397638
X252953
X250000Y391732
X255905
X261811
X258858Y385827
X252953
X250000Y379921
X255905
X261811
X258858Y374016
X252953
X250000Y368110
X255905
X261811
X258858Y362205
X252953
X250000Y356299
X255905
X261811
X258858Y350394
X252953
X250000Y344488
X255905
X261811
X258858Y338583
X252953
X250000Y332677
X255905
X261811
X258858Y326771
X252953
X250000Y320866
X255905
X261811
X258858Y314961
X252953
X270669
X276575
X282480
X288386
X294291
X300197
X306102
X312008
X309055Y320866
X303150
X297244
X291338
X285433
X279527
X273622
X276575Y326771
X282480
X288386
X294291
X300197
X306102
X312008
X309055Y332677
X303150
X297244
X291338
X285433
X279527
X273622
X276575Y338583
X282480
X288386
X294291
X300197
X306102
X312008
X309055Y344488
X303150
X297244
X291338
X285433
X279527
X273622
X276575Y350394
X282480
X288386
X294291
X300197
X306102
X312008
X309055Y356299
X303150
X297244
X291338
X285433
X279527
X273622
X276575Y362205
X282480
X288386
X294291
X300197
X306102
X312008
X309055Y368110
X303150
X297244
X291338
X285433
X279527
X273622
X276575Y374016
X282480
X288386
X294291
X300197
X306102
X312008
X309055Y379921
X303150
X297244
X291338
X285433
X279527
X273622
X276575Y385827
X282480
X288386
X294291
X300197
X306102
X312008
X309055Y391732
X303150
X297244
X291338
X285433
X279527
X273622
X276575Y397638
X282480
X288386
X294291
X300197
X306102
X312008
X309055Y403543
X303150
X297244
X291338
X285433
X279527
X273622
X276575Y409449
X282480
X288386
X294291
X300197
X306102
X312008
X309055Y415354
X303150
X297244
X291338
X285433
X279527
X273622
X276575Y421260
X282480
X288386
X294291
X300197
X306102
X312008
X309055Y427165
X303150
X297244
X291338
X285433
X279527
X273622
X276575Y433071
X282480
X288386
X294291
X300197
X306102
X312008
X309055Y438976
X303150
X297244
X291338
X285433
X279527
X273622
X276575Y444882
X282480
X288386
X294291
X300197
X306102
X312008
Y456693
X306102
X300197
X294291
X297244Y462598
X303150
X309055
X306102Y468504
X300197
X294291
X288386
X282480
X276575
X282480Y456693
X270669Y444882
Y433071
Y421260
Y409449
Y397638
Y385827
Y374016
Y362205
Y350394
Y338583
Y326771
X235236
X229331
X223425
X217520
X211614
X205709
X199803
X193898
X187992
X182087
X176181
X170275
X164370
X158465
X161417Y332677
X167323
X173228
X179134
X185039
X190945
X196850
X202756
X208661
X214567
X220472
X226378
X232283
X238189
X235236Y338583
X229331
X223425
X217520
X211614
X205709
X199803
X193898
X187992
X182087
X176181
X170275
X164370
X158465
X161417Y344488
X167323
X173228
X179134
X185039
X190945
X196850
X202756
X208661
X214567
X220472
X226378
X232283
X238189
X235236Y350394
X229331
X223425
X217520
X211614
X205709
X199803
X193898
X187992
X182087
X176181
X170275
X164370
X158465
X161417Y356299
X167323
X173228
X179134
X185039
X190945
X196850
X202756
X208661
X214567
X220472
X226378
X232283
X238189
X235236Y362205
X229331
X223425
X217520
X211614
X205709
X199803
X193898
X187992
X182087
X176181
X170275
X164370
X158465
X161417Y368110
X167323
X173228
X179134
X185039
X190945
X196850
X202756
X208661
X214567
X220472
X226378
X232283
X238189
X235236Y374016
X229331
X223425
X217520
X211614
X205709
X199803
X193898
X187992
X182087
X176181
X170275
X164370
X158465
X161417Y379921
X167323
X173228
X179134
X185039
X190945
X196850
X202756
X208661
X214567
X220472
X226378
X232283
X238189
X235236Y385827
X229331
X223425
X217520
X211614
X205709
X199803
X193898
X187992
X182087
X176181
X170275
X164370
X158465
X161417Y391732
X167323
X173228
X179134
X185039
X190945
X196850
X202756
X208661
X214567
X220472
X226378
X232283
X238189
X235236Y397638
X229331
X223425
X217520
X211614
X205709
X199803
X193898
X187992
X182087
X176181
X170275
X164370
X158465
X161417Y403543
X167323
X173228
X179134
X185039
X190945
X196850
X202756
X208661
X214567
X220472
X226378
X232283
X238189
X235236Y409449
X229331
X223425
X217520
X211614
X205709
X199803
X193898
X187992
X182087
X176181
X170275
X164370
X158465
X161417Y415354
X167323
X173228
X179134
X185039
X190945
X196850
X202756
X208661
X214567
X220472
X226378
X232283
X238189
X235236Y421260
X229331
X223425
X217520
X211614
X205709
X199803
X193898
X187992
X182087
X176181
X170275
X164370
X158465
X176181Y456693
X182087
X187992
X193898
X199803
X205709
X211614
X217520
X223425
X229331
X235236
X247047
Y444882
X199803Y468504
X193898
X190945Y320866
X196850
X202756
X208661
X214567
X220472
X226378
X232283
X238189
X235236Y314961
X229331
X223425
X217520
X211614
X205709
X199803
X193898
X187992
X182087
X176181
X170275
X164370
X158465
X161417Y320866
X167323
X173228
X179134
X185039
X314961
X326771
X332677
X338583
X344488
X350394
X356299
X362205Y319291
Y313779
X353346Y314961
X347441
X341535
X335630
X329724
Y326771
X335630
X341535
X347441
X353346
X359252
X362205Y324803
Y330315
Y335827
Y341338
Y346850
Y352362
X359252Y350394
X353346
X347441
X341535
X335630
X329724
X326771Y356299
X332677
X338583
X344488
X350394
X356299
X362205Y357874
Y363386
Y368898
Y374409
Y379921
X356299Y379921
X350394
X344488
X347441Y374016
X353346
X350394Y368110
X356299
X353346Y362205
X347441
X341535
X335630
X329724
X332677Y368110
X338583
X344488
X341535Y374016
X335630Y385827
X329724
X323819
X317913
X314961Y391732
X320866
X326771
X332677
X338583
X341535Y397638
X347441
X353346
X350394Y403543
X356299
X362205Y401968
Y396457
X364567Y393307
X370079
X375591
X381102
X386614
X392126
X397638
X403150
X414173
X419685
X425197
X430709
X442066Y393641
X447244Y393307
X452756
X463779
Y386221
X463189Y404134
X451279Y377461
X444685Y377756
X457480Y366929
X463189Y315158
X429921Y322441
X410236
X356299Y332677
X350394
X344488
X338583
X332677
X326771
X329724Y338583
X335630
X341535
X347441
X353346
X359252
X356299Y344488
X350394
X344488
X338583
X332677
X326771
X314961
Y356299
Y368110
X317913Y374016
X323819
X320866Y379921
X326771
X314961
X317913Y397638
X323819
X329724
X335630
X332677Y403543
X338583
X344488
X347441Y409449
X353346
X359252
X362205Y407480
Y412992
Y418504
Y424016
Y429528
Y435039
X359252Y433071
X353346
X347441
X341535
X335630
X329724
X323819
X317913
X314961Y438976
X320866
X326771
X332677
X338583
X344488
X350394
X356299
X362205Y440551
Y446063
Y451575
Y457087
X364567Y459449
X362205Y462598
X356299
X350394
X344488
X347441Y468504
X353346
X359252
X365157
X371063
X370079Y464961
X353346Y456693
X347441
X344488Y450787
X350394
X356299
X353346Y444882
X347441
X341535
X335630
X329724
X323819
X317913
X323819Y456693
X317913Y468504
X341535
X338583Y427165
X344488
X350394
X356299
X359252Y421260
X353346
X347441
X341535
X335630
X329724
X323819
X317913
X314961Y427165
X320866
X326771
X332677
Y415354
X338583
X344488
X350394
X356299
X341535Y409449
X335630
X329724
X323819
X317913
X314961Y415354
X320866
X326771
Y403543
X320866
X314961
Y332677
X410236Y411417
X429921
X444685Y466732
X451279Y466437
X457480Y455905
X469291Y393307
X474803Y396457
X480315
X485827
X491339
X496850
X502362
X507874
X513386
X518898
X524409
X529921
X535433
Y401968
Y407480
Y412992
Y418504
Y424016
Y429528
Y435039
Y440551
Y446063
Y451575
Y457087
Y462598
Y468110
Y390945
X542520Y393307
X548032
X553543
X559055
X564567
X570079
X581102
X586614
X592126
X597638
X608661
X614173
X619685
X618209Y377461
X611614Y377756
X624409Y366929
X596850Y411417
X577165
X542520Y386221
X535433Y379921
Y374409
Y368898
Y363386
Y357874
Y352362
Y346850
Y341338
Y335827
Y330315
Y324803
Y319291
Y313779
X577165Y322441
X596850
X611614Y466732
X618110Y466535
X624409Y455905
X630118Y404134
X630709Y393307
X636221
X641732Y396457
X647244
X652756
X658268
X663779
X669291
X674803
X680315
X685827
X691339
X696850
X700787Y396457
Y390945
Y385433
Y379921
Y374409
Y368898
Y363386
Y357874
Y352362
Y346850
Y341338
Y335827
Y330315
Y324803
Y319291
Y313779
X630118Y315158
X700787Y401968
Y407480
Y412992
Y418504
Y424016
Y429528
X700726Y435087
Y440599
X700787Y446063
Y451575
Y457087
Y462598
Y468110
Y473622
Y479134
Y484646
Y490157
Y495669
Y501181
Y506693
Y512205
Y517717
Y523228
Y528740
Y534252
Y539764
Y545275
Y550787
Y556299
Y561811
Y567323
Y572835
Y578346
Y583858
Y589370
X700787Y594488
X695276
X689764
X684252
X678740
X673228
X667717
X662205
X656693
X651181
X645669
X640158
X634646
X629134
X629134Y487008
X634646
X640158
X645669
X651181
X656693
X662205
X667717
X673228
X678740
X684252
X689764
X695276
X639173Y492323
X623622Y487008
X618110
X601575
X596850Y482283
X590551Y487008
X585039
X579528
X568504
X562992
X557480
X551968
X546457
X540945
X535433
X529921
X524409
X518898
X513386
X507874
X502362
X496850
X491339
X485827
X480315
X474803
X469291
X474409Y509842
X480315
X486220
X492126
X495079Y515748
X489173
X483268
X477362
X471456
X474409Y521653
X480315
X486220
X492126
X495079Y527559
X489173
X483268
X477362
X471456
X474409Y533464
X480315
X486220
X492126
X489173Y539370
X492126Y545275
X495079Y551181
X500984
X512795
X518701
X530512
X527559Y533464
X533464
X539370
X545275
X550000Y533858
Y528346
Y522835
Y517323
Y511811
Y506299
Y500787
X542323Y503937
X536417
X530512
X524606
X521653Y509842
X527559
X533464
X539370
X545275
X542323Y515748
X536417
X530512
X524606
X521653Y521653
X527559
X533464
X539370
X545275
X542323Y527559
X536417
X530512
X524606
X518110Y532283
X509842Y533464
X503937
X506890Y527559
X512795
X509842Y521653
X503937
X506890Y515748
X512795
X509842Y509842
X503937
X509842Y545275
X489173Y551181
X483268
X477362
X474016Y555905
X489173Y562992
X495079
X492126Y580709
X521653
X527559
X530512Y586614
X536417
X542323
X539370Y592520
X545275
X550000Y588976
Y583465
Y577953
Y572441
Y559842
Y544882
Y539370
X574409Y540158
X579134Y551181
X602362Y546063
X614764Y551772
X612598Y594488
X607087
X601575
X596063
X590551
X585039
X579528
X574016
X568504
X562992
X557480
X551968
X533464Y592520
X527559
X521653
X515748
X509842
X518701Y586614
X524606
X515748Y568897
X535433Y479134
Y473622
X575591Y496457
X574409Y517717
X618110Y594488
X623622
X465551Y574803
X462598Y568897
X468504
X465551Y562992
X468504Y557086
X459646Y551181
X453740
X447834
X441929
X436024
X430118
X424213
X418307
X412401
X406496
X400590
X394685
X388779
X382874
X376968
X371063
X365157
X359252
X356299Y557086
X362205
X368110
X374016
X379921
X385827
X391732
X397638
X403543
X409449
X415354
X421260
X427165
X433071
X438976
X444882
X450787
X447834Y562992
X441929
X436024
X430118
X424213
X418307
X412401
X406496
X400590
X394685
X388779
X382874
X376968
X371063
X365157
X359252
X353346
X347441
X344488Y568897
X350394
X356299
X362205
X368110
X374016
X379921
X385827
X391732
X397638
X403543
X409449
X415354
X421260
X427165
X433071
X438976
X444882
X450787
X447834Y574803
X441929
X436024
X438976Y580709
X444882
X450787
X421260
X418307Y574803
X400590
X394685
X388779
X382874
X376968
X371063
X365157
X368110Y580709
X374016
X379921
X385827
X391732
X397638
X400590Y586614
X406496
X403543Y592520
X409449
X415354
X397638
X391732
X385827
X379921
X374016
X368110
X362205
X356299
X350394
X344488
X338583
X332677
X326771
X320866
X314961
X317913Y586614
X323819
X329724
X335630
X341535
X347441
X353346
X359252
X365157
X371063
X376968
X382874
X388779
X394685
X391732Y545275
X397638
X403543
X409449
X415354
X421260
X427165
X433071
X438976
X444882
X450787
X456693
X459646Y539370
X465551
X462598Y533464
X468504
X465551Y527559
X459646
X453740
X447834
X441929
X436024
X430118
X424213
X418307
X412401
X406496
X400590
X394685
X388779
X382874
X376968
X374016Y533464
X379921
X385827
X391732
X397638
X403543
X409449
X415354
X421260
X427165
X433071
X438976
X444882
X450787
X456693
X453740Y539370
X447834
X441929
X436024
X430118
X424213
X418307
X412401
X406496
X400590
X394685
X388779
X382874
X376968
X371063
X365157
X359252
X353346
X347441
X341535
X329724
X323819
X317913
X314961Y533464
X320866
X326771
Y545275
X332677
X329724Y551181
X323819
X317913
X314961Y557086
X320866
X326771
X332677
X329724Y562992
X323819
X317913
X314961Y568897
X320866
X326771
X332677
X329724Y574803
X323819
X326771Y580709
X332677
X344488
X350394
X353346Y574803
X347441
X344488Y557086
X350394
X362205Y545275
X368110
X374016
X379921
X385827
Y521653
X391732
X397638
X403543
X409449
X415354
X421260
X427165
X433071
X438976
X444882
X450787
X456693
X462598
X468504
X465551Y515748
X459646
X453740
X447834
X441929
X436024
X430118
X424213
X418307
X412401
X406496
X400590
X394685
X388779
X382874
X376968
X374016Y509842
X379921
X385827
X391732
X397638
X403543
X409449
X415354
X421260
X427165
X433071
X438976
X444882
X450787
X456693
X462598
X468504
X459646Y503937
X453740
X447834
X441929
X436024
X430118
X424213
X418307
X414961Y496850
X414173Y487008
X419685
X425197
X430709
X436221
X441732
X447244
X451181Y490945
Y481102
X458268Y487008
X408661Y487795
X403150Y487008
X397638
X392126
X385827Y486220
X386614Y481496
X382874Y480315
X376968
X371063
X365157
X359252
X353346
X347441
X341535
X344488Y486220
X350394
X356299
X362205
X368110
X374016
X379921
X381102Y475984
X374016Y474409
X375591Y470472
X368110Y474409
X362205
X368110Y498031
X374016
X379921
X385827
X391732
X397638
X403543
X379921Y521653
X365157Y515748
X359252
X353346
X347441
X341535
X344488Y509842
X350394
X356299
X362205
X368110
X347441Y527559
X329724Y515748
X323819
X317913
X314961Y509842
X320866
X326771
X329724Y503937
X323819
X317913
X336221Y501968
X326771Y486220
X320866
X323819Y480315
X329724
X312598Y484646
X320866Y545275
X312008Y539370
X306102
X300197
X303150Y533464
X309055
X312008Y515748
X306102
X300197
X303150Y509842
X309055
X312008Y503937
X306102
X300197
X288386
X282480
X276575
X270669
X264764
X258858
X261811Y509842
X267716
X273622
X279527
X285433
Y498031
X279527
X273622
X267716
X261811
X264764Y492126
X270669
X276575
X282480
X288386
X285433Y486220
X291338
X288386Y480315
X282480
X276575
X270669
X264764
X261811Y486220
X267716
X273622
X279527
Y474409
X285433
X291338
X273622
X255905
X250000
X244094
X238189
X232283
X226378
X220472
X214567
X208661
X202756
X196850
X190945
X193898Y480315
X199803
X205709
X211614
X217520
X223425
X229331
X226378Y486220
X220472
X214567
X208661
X202756
X196850
X190945
Y498031
X193898Y503937
X190945Y509842
X185039
X179134
X173228
X167323
X170275Y515748
X176181
X182087
X187992
X193898
X199803
X205709
X202756Y521653
X196850
X190945
X185039
X179134
X173228
X167323
X170275Y527559
X176181
X182087
X187992
X193898
X199803
X205709
X202756Y533464
X208661
X205709Y539370
X199803
X193898
X187992
X182087
X176181
X170275
X173228Y533464
X179134
X185039
X190945
X196850
Y545275
X190945
X185039
X179134
X182087Y551181
X187992
X193898
X199803
X196850Y557086
X202756
X208661
X214567
X220472
X226378
X232283
X238189
X244094
X250000
X255905
X261811
X267716
X273622
X279527
X285433
X291338
X288386Y562992
X282480
X276575
X270669
X264764
X258858
X252953
X247047
X241142
X235236
X229331
X223425
X217520
X211614
X205709
X199803
X193898
X187992
X182087
X176181
X170275
X164370
X158465
X161417Y568897
X167323
X173228
X179134
X185039
X190945
X196850
X202756
X208661
X214567
X220472
X226378
X232283
X238189
X244094
X250000
X255905
X261811
X267716
X273622
X279527
X285433
X291338
X288386Y574803
X282480
X276575
X270669
X264764
X258858
X252953
X247047
X241142
X235236
X229331
X223425
X217520
X211614
X205709
X199803
X193898
X187992
X182087
X176181
X170275
X164370
X158465
X161417Y580709
X167323
X173228
X179134
X185039
X190945
X196850
X202756
X208661
X214567
X220472
X217520Y586614
X211614
X205709
X199803
X193898
X187992
X182087
X176181
X170275
X164370
X161417Y592520
X167323
X173228
X179134
X185039
X190945
X196850
X202756
X208661
X214567
X220472
X226378
X232283
X238189
X244094
X250000
X255905
X261811
X267716
X273622
X279527
X285433
X291338
X297244
X303150
X309055
X312008Y586614
X306102
X300197
X294291
X288386
X282480
X276575
X270669
X264764
X258858
X252953
X250000Y580709
X255905
X261811
X267716
X273622
X279527
X285433
X303150
X309055
X306102Y574803
X303150Y568897
X309055
X312008Y562992
X306102
X300197
X303150Y557086
X309055
X288386Y551181
X282480
X276575
X270669
X273622Y545275
X279527
X285433
X291338
X288386Y539370
X282480
X276575
X270669
X264764
X261811Y533464
X267716
X273622
X279527
X285433
X276575Y527559
X270669
X264764
X258858
X261811Y521653
X267716
X273622
X276575Y515748
X270669
X264764
X258858
X255118Y514173
X247047Y515748
X241142
X235236
X229331
X223425
X217520
X214567Y521653
X220472
X226378
X232283
X238189
X244094
X250000
X247047Y527559
X241142
X235236
X229331
X223425
X217520
X226378Y533464
X232283
X238189
X244094
X247047Y539370
X241142
X235236
X229331
X223425
X220472Y545275
X226378
X229331Y551181
X223425
X217520
X211614
X214567Y545275
X244094
X250000
X255905
X258858Y551181
X252953
X247047
X241142
X238189Y580709
X232283
X235236Y586614
X190945Y557086
X185039
X179134
X173228
X167323
X161417
X164370Y551181
X158465
X161417Y545275
X158465Y527559
X162992Y516535
X164370Y503937
X170275
X176181
X173228Y498031
X179134
X176181Y492126
X170275
X164370
X158465
X161417Y486220
X167323
X173228
X167323Y498031
X161417Y474409
X205709Y503937
X220472Y509842
X236614Y487795
X241142Y492126
X247047
X244094Y486220
X250000
X252953Y480315
X247047
X258858Y492126
X306102Y480315
X155512Y486220
X149606
X143701
X137795
X131890
X125984
X120079
X114173
X108268
X102362
X96457
X90551
X84646
X87598Y492126
X93504
X99409
X105315
X111220
X117126
X123031
X128937
X134843
X140748
X146653
X152559
X143701Y498031
X146653Y515748
X140748
X134843
X137795Y521653
X143701
X149606
X155512
X152559Y527559
X146653
X140748
X134843
X128937
X131890Y533464
X137795
X143701
X149606
X155512
X152559Y539370
X146653
X140748
X134843
X131890Y545275
X125984
X120079
X123031Y551181
X128937
X134843
X131890Y557086
X137795
X143701
X149606
X155512
X152559Y562992
X146653
X140748
X134843
X128937
X123031
X117126
X111220
X105315
X99409
X93504
X87598
X84646Y568897
X90551
X96457
X102362
X108268
X114173
X120079
X125984
X131890
X137795
X143701
X149606
X155512
X152559Y574803
X146653
X140748
X134843
X128937
X123031
X117126
X111220
X105315
X99409
X93504
X87598
X84646Y592520
X96457
X102362
X108268
X114173
X120079
X125984
X131890
X137795
X143701
X149606
X155512
X140748Y586614
X137795Y580709
X143701
X125984
X120079
X114173
X108268
X102362
X105315Y586614
X111220
X117126
X123031
X120079Y557086
X125984
X114173
X108268
X102362
X96457
X90551
X84646
X87598Y551181
X93504
X99409
X105315
X102362Y545275
X96457
X90551
X84646
X87598Y539370
X93504
X99409
X105315
X111220
X117126
X114173Y533464
X108268
X102362
X96457
X90551
X84646
X87598Y527559
X93504
X99409
X105315
X111220
X117126
X114173Y521653
X108268
X102362
X96457
X90551
X84646
X87598Y515748
X93504
X99409
X105315
X111220
X108268Y509842
X102362
X96457
X90551
X84646
X87598Y503937
X93504
X99409
X105315
X102362Y498031
X108268
X96457
X90551
X84646
X87598Y480315
X93504
X99409
X105315
X111220
X108268Y474409
X102362
X96457
X90551
X84646
X123031Y480315
X128937
X134843
X140748
X155512Y474409
Y545275
X149606
X152559Y551181
X123031Y515748
T02
X660236Y191969
Y201969
X650236
X660236Y211968
Y280945
Y290945
X650236
X660236Y300945
X493307Y300945
Y290945
Y280945
X483307Y290945
X483307Y201969
X493307
Y191969
Y211968
X493307Y369921
Y379921
X483307
X493307Y389921
Y458898
X660236Y458898
Y389921
Y379921
Y369921
X650236Y379921
Y468898
X660236
Y478898
X633465Y557323
Y567323
Y577323
X623465Y567323
X595276
Y557323
X585276Y567323
X595276Y577323
X493307Y478898
Y468898
X483307
T03
X527252Y147772
X694181
Y157614
Y167457
Y236748
Y246591
Y256433
X527252Y256433
Y246591
Y236748
X527252Y167457
Y157614
X527252Y325725
Y335567
Y345410
Y414701
Y424543
Y434386
X694181Y434386
Y424543
Y414701
Y345409
Y335567
Y325725
Y512598
Y522441
Y532283
T04
X394094Y146457
X561024
Y158268
Y170079
Y235433
Y247244
Y259055
X394094Y259055
Y247244
Y235433
X394094Y170079
Y158268
X394094Y324410
Y336221
Y348031
Y413386
Y425197
Y437008
X561024Y437008
Y425197
Y413386
Y348031
Y336221
Y324410
T05
X94126Y121008
X104126
Y131008
X94126
Y141008
X104126
Y151008
X94126
X334126
X344126
Y141008
X334126
Y131008
X344126
Y121008
X334126
Y161008
Y171008
Y181008
Y191008
Y201008
Y211008
Y221008
Y231008
Y241008
Y251008
Y261008
Y271008
Y281008
Y291008
Y301008
X344126
Y291008
Y281008
Y271008
Y261008
Y251008
Y241008
Y231008
Y221008
Y211008
Y201008
Y191008
Y181008
Y171008
Y161008
X104126
X94126
Y171008
X104126
Y181008
X94126
Y191008
X104126
Y201008
X94126
Y211008
X104126
Y221008
X94126
Y231008
X104126
Y241008
X94126
Y251008
X104126
Y261008
X94126
Y271008
X104126
Y281008
X94126
Y291008
X104126
Y301008
X94126
T06
X124126Y121008
Y131008
Y141008
Y151008
X314126
Y141008
Y131008
Y121008
X416378Y135039
X426378
X417982Y154311
X449242
X584912
X581732Y135039
X591732
X616172Y154311
X635113Y158506
Y168506
Y178506
Y247483
Y257483
Y267483
X616172Y263287
Y253287
Y243287
Y273287
X584912
Y263287
Y253287
Y243287
X583307Y224016
X593307
X584912Y184311
Y174311
Y164311
X616172
Y174311
Y184311
X468184Y178506
Y168506
Y158506
X449242Y164311
Y174311
Y184311
X417982
Y174311
Y164311
X416378Y224016
X426378
X417982Y243287
Y253287
Y263287
Y273287
X449242
Y263287
Y253287
Y243287
X468184Y247483
Y257483
Y267483
X314126Y267008
Y277008
Y287008
Y297008
Y257008
Y247008
Y237008
Y227008
Y217008
Y207008
Y191008
Y181008
Y171008
Y161008
X124126
Y171008
Y191008
Y201008
Y211008
Y221008
Y231008
Y241008
Y251008
Y261008
X210315Y462598
X220315
X230315
X240315
X250315
X260315
X275984Y462205
Y452205
X288583
Y462205
X417982Y451240
Y441240
Y431240
Y421240
X416378Y401968
X426378
X449242Y421240
Y431240
Y441240
Y451240
X468184Y445435
Y435435
Y425435
Y356459
Y346459
Y336459
X449242Y332264
Y342264
Y352264
Y362264
X417982
Y352264
Y342264
Y332264
X416378Y312992
X426378
X583307Y312598
X593307
X584912Y332264
Y342264
Y352264
Y362264
X616172
Y352264
Y342264
Y332264
Y421240
Y431240
Y441240
Y451240
X584912
Y441240
Y431240
Y421240
X583307Y401968
X593307
X635113Y425435
Y435435
Y445435
Y356459
Y346459
Y336459
X633538Y522680
Y532680
Y542680
X614597Y535472
Y525472
Y515472
Y505472
X583337
Y515472
Y525472
Y535472
X562992Y533779
Y543780
Y564567
Y574567
Y513386
Y503386
X351339Y474016
X341339
X342913Y548425
X352913
X310394
X300394
X301969Y474016
X311968
X183465Y472913
Y482913
Y492913
Y502913
X200000Y498819
Y508819
X158701Y500669
Y469409
X148701
X138701
X128701
Y500669
X138701
X148701
X115354Y498819
Y508819
T07
X315354Y578740
X338189
X357874
X408661
X428346
X295669
T08
X317520Y451575
X327559
X337598
T09
X495669Y568898
X509055
X522441
X515748Y576772
X502362
T10
X162992Y536614
X172835Y546457
X205906
X215748Y536614
X235433Y546457
X255118Y536614
X264961Y546457
X245276Y585827
X225591
X153150
X133465
X143307Y546457
X123622Y536614
X113779Y546457
T11
X394094Y135433
X561024
Y181102
Y224410
Y270079
X394094Y270079
Y224410
X394094Y181102
X394094Y313386
Y359055
Y402362
Y448032
X561024Y448032
Y402362
Y359055
Y313386
T12
X499693Y140291
X666622
Y174937
Y229268
Y263913
X499693Y263913
Y229268
X499693Y174937
X499693Y318244
Y352890
Y407221
Y441866
X666622Y441866
Y407221
Y352890
Y318244
Y505118
Y539764
T13
X142126Y111024
X296126
X691339
Y585039
X91339
M30
