M48
;Layer_Color=9474304
;FILE_FORMAT=2:5
INCH,TZ
;TYPE=PLATED
T01F00S00C0.01378
T02F00S00C0.02480
T03F00S00C0.03937
T04F00S00C0.03976
T05F00S00C0.04016
T06F00S00C0.04528
T07F00S00C0.04724
T08F00S00C0.05197
T09F00S00C0.05315
T10F00S00C0.05512
T11F00S00C0.06260
T12F00S00C0.11181
T13F00S00C0.13386
%
T01
X364567Y126378
X370079
X375591
X381102
X386614
X392126
X397638
X403150
X408661
X414173
X419685
X425197
X430709
X436221
X441732
X447244
X452756
X458268
X463779
X410236Y144488
X362205Y142913
Y137402
Y131890
Y148425
Y153937
X469291Y126378
X474803
X480315
X485827
X491339
X496850
X502362
X507874
X513386
X518898
X524409
X529921
X535433
X540945
X546457
X551968
X557480
X562992
X568504
X574016
X579528
X585039
X590551
X596063
X601575
X607087
X612598
X618110
X623622
X577165Y144488
X535433Y142913
Y148425
Y153937
Y137402
Y131890
X629134Y126378
X634646
X640158
X645669
X651181
X656693
X662205
X667717
X673228
X678740
X684252
X689764
X695276
X700787
Y131890
Y137402
Y142913
Y148425
Y153937
Y181496
Y187008
Y192520
Y198031
Y203543
Y209055
Y214567
Y220079
Y225590
Y231102
Y236614
Y242126
Y247638
Y264173
Y269685
Y275197
Y280709
Y286220
Y291732
Y297244
Y302756
Y308268
X696850Y307480
X691339
X685827
X680315
X674803
X669291
X663779
X658268
X652756
X647244
X641732
X636221Y304331
X630709
Y215354
X636221
X641732Y218504
X647244
X652756
X658268
X663779
X669291
X674803
X680315
X685827
X691339
X696850
X619685Y215354
X614173
X608661
X597638
X592126
X586614
X581102
X570079
X564567
X559055
X553543
X548032
X542520
X535433Y214567
X531496Y215354
X529921Y218504
X524409
X518898
X513386
X507874
X502362
X496850
X491339
X485827
X480315
X474803
X469291Y215354
X535433Y220079
Y225590
Y231102
Y236614
Y242126
Y247638
Y253150
Y258661
Y264173
Y269685
Y275197
Y280709
Y286220
Y291732
Y297244
Y302756
Y308268
X529921Y307480
X524409
X518898
X513386
X507874
X502362
X496850
X491339
X485827
X480315
X474803
X469291Y304331
X542520Y304331
X548032
X553543
X559055
X564567
X570079
X581102
X586614
X592126
X597638
X608661
X614173
X619685
X618110Y288583
X624409Y277953
X618209Y199508
X624409Y188976
X535433Y187008
Y192520
Y198031
Y203543
Y209055
Y181496
Y175984
Y170472
Y164961
Y159449
X577165Y233465
X463779Y215354
X452756
X447244
X441732
X430709
X425197
X419685
X414173
X403150
X397638
X392126
X386614
X381102
X375591
X370079
X364567
X362205Y214567
Y209055
Y203543
Y198031
Y192520
Y187008
Y181496
Y175984
Y170472
Y164961
Y159449
Y220079
Y225590
Y231102
Y236614
Y242126
Y247638
Y253150
Y258661
Y264173
Y269685
Y275197
Y280709
Y286220
Y291732
Y297244
Y302756
X364567Y304331
X370079
X375591
X381102
X386614
X392126
X397638
X403150
X414173
X419685
X425197
X430709
X441732
X447244
X452756
X463779
X451279Y288484
X457480Y277953
X451279Y199508
X457480Y188976
X410236Y233465
X362205Y308268
Y313779
Y319291
Y324803
Y330315
Y335827
Y341338
Y346850
Y352362
Y357874
Y363386
Y368898
Y374409
Y379921
Y385433
Y390945
X364567Y393307
X362205Y396457
Y401968
Y407480
Y412992
Y418504
Y424016
Y429528
Y435039
Y440551
Y446063
Y451575
Y457087
X364567Y459449
X370079Y464961
X370079Y393307
X375591
X381102
X386614
X392126
X397638
X403150
X414173
X419685
X425197
X430709
X441732
X447244
X452756
X463779
X451279Y377461
X457480Y366929
Y455905
X451279Y466437
X410236Y411417
Y322441
X535433Y324803
Y330315
Y335827
Y341338
Y346850
Y352362
Y357874
Y363386
Y368898
Y374409
Y379921
Y385433
Y390945
Y396457
X529921
X524409
X518898
X513386
X507874
X502362
X496850
X491339
X485827
X480315
X474803
X469291Y393307
X542520Y393307
X548032
X553543
X559055
X564567
X570079
X581102
X586614
X592126
X597638
X608661
X614173
X619685
X618209Y377461
X624409Y366929
Y455905
X618110Y466535
X535433Y468110
Y462598
Y457087
Y451575
Y446063
Y440551
Y435039
Y429528
Y424016
Y418504
Y412992
Y407480
Y401968
X577165Y411417
Y322441
X535433Y319291
Y313779
X700787
Y319291
Y324803
Y330315
Y335827
Y357874
Y363386
Y368898
Y374409
Y379921
Y385433
Y390945
Y396457
X696850Y396457
X691339
X685827
X680315
X674803
X669291
X663779
X658268
X652756
X647244
X641732
X636221Y393307
X630709
X700787Y401968
Y407480
Y412992
Y418504
Y424016
Y446063
Y451575
Y457087
Y462598
Y468110
Y473622
Y479134
Y484646
Y490157
Y495669
Y501181
Y506693
Y512205
Y517717
Y523228
Y545275
Y550787
Y556299
Y561811
Y567323
Y572835
Y578346
Y583858
Y589370
X695276Y487008
X689764
X684252
X678740
X673228
X667717
X662205
X656693
X651181
X645669
X640158
X634646
X629134
X623622
X618110
X601575
X596063
X590551
X585039
X579528
X574016
X568504
X562992
X557480
X551968
X546457
X540945
X535433Y484646
Y479134
Y473622
X529921Y487008
X524409
X518898
X513386
X507874
X502362
X496850
X491339
X485827
X480315
X474803
X474016Y555905
X463779Y487008
X458268
X452756
X447244
X441732
X436221
X430709
X425197
X419685
X414173
X408661
X403150
X397638
X392126
X386614Y481496
X381102Y475984
X375591Y470472
X236614Y487795
X255118Y514173
X162992Y516535
T02
X660236Y191969
Y201969
X650236
X660236Y211968
Y280945
Y290945
X650236
X660236Y300945
X493307Y300945
Y290945
Y280945
X483307Y290945
X483307Y201969
X493307
Y191969
Y211968
X493307Y369921
Y379921
X483307
X493307Y389921
Y458898
X660236Y458898
Y389921
Y379921
Y369921
X650236Y379921
Y468898
X660236
Y478898
X633465Y557323
Y567323
Y577323
X623465Y567323
X595276
Y557323
X585276Y567323
X595276Y577323
X493307Y478898
Y468898
X483307
T03
X527252Y147772
X694181
Y157614
Y167457
Y236748
Y246591
Y256433
X527252Y256433
Y246591
Y236748
X527252Y167457
Y157614
X527252Y325725
Y335567
Y345410
Y414701
Y424543
Y434386
X694181Y434386
Y424543
Y414701
Y345409
Y335567
Y325725
Y512598
Y522441
Y532283
T04
X394094Y146457
X561024
Y158268
Y170079
Y235433
Y247244
Y259055
X394094Y259055
Y247244
Y235433
X394094Y170079
Y158268
X394094Y324410
Y336221
Y348031
Y413386
Y425197
Y437008
X561024Y437008
Y425197
Y413386
Y348031
Y336221
Y324410
T05
X94126Y121008
X104126
Y131008
X94126
Y141008
X104126
Y151008
X94126
X334126
Y141008
Y131008
Y121008
X344126
Y131008
Y141008
Y151008
Y161008
X334126
Y171008
X344126
Y181008
X334126
Y191008
X344126
Y201008
X334126
Y211008
X344126
Y221008
X334126
Y231008
X344126
Y241008
X334126
Y251008
X344126
Y261008
X334126
Y271008
X344126
Y281008
X334126
Y291008
X344126
Y301008
X334126
X104126
Y291008
Y281008
Y271008
Y261008
Y251008
Y241008
Y231008
Y221008
Y211008
Y201008
Y191008
Y181008
Y171008
Y161008
X94126
Y171008
Y181008
Y191008
Y201008
Y211008
Y221008
Y231008
Y241008
Y251008
Y261008
Y271008
Y281008
Y291008
Y301008
T06
X124126Y121008
Y131008
Y141008
Y151008
X314126
Y141008
Y131008
Y121008
X416378Y135039
X426378
X417982Y154311
X449242
X584912
X581732Y135039
X591732
X616172Y154311
X635113Y158506
Y168506
Y178506
Y247483
Y257483
Y267483
X616172Y263287
Y253287
Y243287
Y273287
X584912
Y263287
Y253287
Y243287
X583307Y224016
X593307
X584912Y184311
Y174311
Y164311
X616172
Y174311
Y184311
X468184Y178506
Y168506
Y158506
X449242Y164311
Y174311
Y184311
X417982
Y174311
Y164311
X416378Y224016
X426378
X417982Y243287
Y253287
Y263287
Y273287
X449242
Y263287
Y253287
Y243287
X468184Y247483
Y257483
Y267483
X314126Y267008
Y277008
Y287008
Y297008
Y257008
Y247008
Y237008
Y227008
Y217008
Y207008
Y191008
Y181008
Y171008
Y161008
X124126
Y171008
Y191008
Y201008
Y211008
Y221008
Y231008
Y241008
Y251008
Y261008
X210315Y462598
X220315
X230315
X240315
X250315
X260315
X275984Y462205
Y452205
X288583
Y462205
X417982Y451240
Y441240
Y431240
Y421240
X416378Y401968
X426378
X449242Y421240
Y431240
Y441240
Y451240
X468184Y445435
Y435435
Y425435
Y356459
Y346459
Y336459
X449242Y332264
Y342264
Y352264
Y362264
X417982
Y352264
Y342264
Y332264
X416378Y312992
X426378
X583307Y312598
X593307
X584912Y332264
Y342264
Y352264
Y362264
X616172
Y352264
Y342264
Y332264
Y421240
Y431240
Y441240
Y451240
X584912
Y441240
Y431240
Y421240
X583307Y401968
X593307
X635113Y425435
Y435435
Y445435
Y356459
Y346459
Y336459
X633538Y522680
Y532680
Y542680
X614597Y535472
Y525472
Y515472
Y505472
X583337
Y515472
Y525472
Y535472
X562992Y532598
Y542598
Y564567
Y574567
Y510630
Y500630
X351339Y474016
X341339
X342913Y548425
X352913
X310394
X300394
X301969Y474016
X311968
X183465Y472913
Y482913
Y492913
Y502913
X200000Y498819
Y508819
X158701Y500669
Y469409
X148701
X138701
X128701
Y500669
X138701
X148701
X115354Y498819
Y508819
T07
X315354Y578740
X338189
X357874
X408661
X428346
X295669
T08
X317520Y451575
X327559
X337598
T09
X495669Y568898
X509055
X522441
X515748Y576772
X502362
T10
X162992Y536614
X172835Y546457
X205906
X215748Y536614
X235433Y546457
X255118Y536614
X264961Y546457
X245276Y585827
X225591
X153150
X133465
X143307Y546457
X123622Y536614
X113779Y546457
T11
X394094Y135433
X561024
Y181102
Y224410
Y270079
X394094Y270079
Y224410
X394094Y181102
X394094Y313386
Y359055
Y402362
Y448032
X561024Y448032
Y402362
Y359055
Y313386
T12
X499693Y140291
X666622
Y174937
Y229268
Y263913
X499693Y263913
Y229268
X499693Y174937
X499693Y318244
Y352890
Y407221
Y441866
X666622Y441866
Y407221
Y352890
Y318244
Y505118
Y539764
T13
X142126Y111024
X296126
X377953
X691339
Y585039
X377559
X91339
M30
